<?xml version="1.0" encoding="utf-8"?>
<!-- Generator: Adobe Illustrator 27.0.1, SVG Export Plug-In . SVG Version: 6.00 Build 0)  -->
<svg version="1.1" xmlns="http://www.w3.org/2000/svg" xmlns:xlink="http://www.w3.org/1999/xlink" x="0px" y="0px"
	 viewBox="0 0 1000 1000" style="enable-background:new 0 0 1000 1000;" xml:space="preserve">
<style type="text/css">
	.st0{display:none;}
	.st1{display:inline;fill:#F0F2F5;}
	.st2{display:inline;fill:#30D5C8;}
	.st3{display:inline;fill:#FFFFFF;}
	.st4{display:inline;fill:none;}
	.st5{display:inline;}
	.st6{display:inline;fill:none;stroke:#30D5C8;stroke-width:6;stroke-miterlimit:10;}
	.st7{display:inline;fill:none;stroke:#30D5C8;stroke-width:4;stroke-miterlimit:10;}
	.st8{display:inline;fill:#FF73A9;}
	.st9{display:inline;fill:none;stroke:#FF73A9;stroke-width:6;stroke-miterlimit:10;}
	.st10{display:inline;fill:none;stroke:#FF73A9;stroke-width:4;stroke-miterlimit:10;}
	.st11{display:inline;fill:#00FFFF;}
	.st12{display:inline;fill:none;stroke:#00FFFF;stroke-width:6;stroke-miterlimit:10;}
	.st13{display:inline;fill:none;stroke:#00FFFF;stroke-width:4;stroke-miterlimit:10;}
	.st14{fill:#40E0D0;}
	.st15{fill:#FFFFFF;}
	.st16{fill:none;}
	.st17{fill:none;stroke:#40E0D0;stroke-width:6;stroke-miterlimit:10;}
	.st18{fill:none;stroke:#40E0D0;stroke-width:4;stroke-miterlimit:10;}
</style>
<g id="BAKGRUND" class="st0">
	<rect class="st1" width="1000" height="1000"/>
</g>
<g id="BLÅA" class="st0">
	<circle class="st2" cx="500" cy="500" r="314.65"/>
	<path id="Symbol_00000127025211457727840230000016433504878753260949_" class="st3" d="M611.84,479.1
		c22.08,0,44.15-0.01,66.23,0.01c5.91,0,11.82,0.07,17.73,0.15c1.19,0.02,2.37,0.25,3.55,0.41c1.36,0.18,2.72,0.37,4.08,0.61
		c0.6,0.11,1.19,0.34,1.78,0.52c1.13,0.34,2.26,0.69,3.39,1.04c1.07,0.33,2.22,0.5,3.19,1.01c1.6,0.84,3.22,1.37,5.03,1.31
		c1.69-0.06,3.21,0.17,4.25,1.83c0.33,0.53,1.24,0.88,1.93,0.97c1.13,0.16,1.97,0.69,2.81,1.39c0.66,0.55,1.45,0.96,2.21,1.39
		c0.65,0.37,1.33,0.67,1.98,1.02c0.33,0.18,0.62,0.51,0.97,0.58c2.35,0.47,4,2.18,5.97,3.32c0.16,0.09,0.38,0.16,0.47,0.31
		c0.68,1.19,1.93,1.72,2.91,2.55c2.14,1.82,4.07,3.88,6.07,5.86c1.92,1.89,3.83,3.79,5.71,5.73c0.56,0.58,1,1.27,1.49,1.91
		c0.3,0.39,0.55,0.86,0.92,1.17c0.77,0.66,1.21,1.6,1.84,2.27c1.29,1.38,1.91,3.04,2.78,4.6c0.24,0.43,0.7,0.72,0.96,1.14
		c0.35,0.57,0.61,1.19,0.89,1.8c0.05,0.11-0.01,0.28,0.06,0.37c1.81,2.37,2.07,5.6,4.35,7.7c0.63,0.58,0.96,1.29,0.79,2.2
		c-0.4,2.21,0.28,4.18,1.3,6.12c0.54,1.03,0.97,2.2,1.12,3.35c0.17,1.34,0.5,2.58,1.15,3.75c0.44,0.79,0.63,1.57,0.52,2.51
		c-0.08,0.7,0.3,1.44,0.43,2.16c0.2,1.09,0.46,2.19,0.52,3.29c0.14,2.69,0.19,5.39,0.27,8.09c0.01,0.38,0.06,0.75,0.04,1.13
		c-0.1,1.62-0.24,3.24-0.32,4.87c-0.15,3.19-0.2,6.39-0.42,9.58c-0.07,1.03-0.46,2.09-0.91,3.03c-0.78,1.61-1.38,3.23-1.28,5.05
		c0.07,1.32-0.36,2.4-1.3,3.4c-0.55,0.59-0.79,1.53-1,2.35c-0.21,0.84-0.22,1.74-0.31,2.62c-0.03,0.25,0.02,0.56-0.11,0.74
		c-1.53,2.12-2.09,4.78-3.74,6.82c-0.65,0.8-1.26,1.57-1.14,2.68c0.09,0.84-0.32,1.41-0.91,1.96c-0.5,0.46-1.09,0.95-1.31,1.55
		c-0.59,1.62-1.38,3.08-2.56,4.33c-0.63,0.67-1.25,1.36-1.86,2.05c-0.79,0.88-1.64,1.71-2.36,2.65c-2.27,2.94-5,5.39-7.71,7.9
		c-0.95,0.88-1.74,1.91-2.81,2.71c-2.6,1.94-5.08,4.04-7.64,6.05c-0.49,0.38-1.09,0.86-1.64,0.87c-1.54,0.03-2.55,0.88-3.59,1.81
		c-0.32,0.29-0.76,0.44-1.15,0.63c-0.45,0.22-0.99,0.31-1.37,0.62c-1.69,1.39-3.6,2.22-5.77,2.46c-0.18,0.02-0.38,0.11-0.5,0.24
		c-1.48,1.59-3.37,1.98-5.46,2.1c-1.44,0.08-2.79,0.59-3.88,1.69c-0.44,0.44-1.27,0.8-1.86,0.73c-2.37-0.3-4.59,0.6-6.9,0.69
		c-0.5,0.02-1,0.18-1.5,0.14c-1.5-0.12-2.83,0.37-4.19,0.91c-0.91,0.36-1.92,0.53-2.9,0.65c-0.87,0.11-1.76,0.02-2.64,0.02
		c-53.33-0.01-106.66-0.03-160-0.02c-2.13,0-4.26,0.19-6.39,0.35c-1.51,0.11-1.91,0.39-2.15,1.88c-0.28,1.79-0.46,3.62-0.46,5.43
		c0.05,11.13,0.17,22.26,0.27,33.39c0.02,2.15-0.15,4.22-1.33,6.16c-0.45,0.75-0.51,1.8-0.56,2.72c-0.17,3.14-0.24,6.28-0.37,9.41
		c-0.05,1.36-0.49,2.53-1.4,3.61c-0.48,0.57-0.75,1.44-0.84,2.2c-0.25,2.07-0.43,4.08-1.96,5.75c-0.49,0.53-0.56,1.5-0.72,2.28
		c-0.18,0.86-0.18,1.75-0.37,2.61c-0.12,0.52-0.34,1.15-0.72,1.46c-0.98,0.81-1.56,1.78-1.79,3c-0.02,0.12-0.04,0.27-0.12,0.35
		c-1.49,1.59-2,3.83-3.64,5.34c-0.59,0.55-0.81,1.5-1.21,2.26c-0.4,0.76-0.68,1.62-1.23,2.25c-1.9,2.16-3.89,4.24-5.84,6.35
		c-0.09,0.09-0.22,0.18-0.24,0.29c-0.4,1.9-1.92,2.99-3.1,4.33c-0.29,0.33-0.55,0.86-0.9,0.93c-2.11,0.44-3.17,2.38-4.9,3.35
		c-0.22,0.12-0.43,0.27-0.61,0.45c-1.29,1.25-2.58,2.5-3.86,3.75c-0.13,0.13-0.26,0.35-0.41,0.38c-2.18,0.42-3.44,2.47-5.51,3.09
		c-0.12,0.04-0.24,0.09-0.34,0.16c-1.8,1.25-3.62,2.44-5.82,2.89c-0.32,0.07-0.55,0.5-0.87,0.69c-0.64,0.37-1.27,0.79-1.96,1
		c-1.68,0.51-3.38,0.82-4.74,2.13c-0.76,0.73-1.82,1.01-2.99,0.7c-1.45-0.38-2.78,0.19-3.8,1.17c-1.1,1.06-2.3,1.36-3.76,1.31
		c-2.57-0.09-5.16-0.2-7.67,0.6c-0.35,0.11-0.75,0.16-1.12,0.14c-1.93-0.14-3.74,0.31-5.49,1.07c-0.4,0.17-0.84,0.35-1.26,0.35
		c-3.18-0.02-6.39,0.43-9.49-0.86c-1.31-0.54-2.79-0.74-4.22-0.87c-2.69-0.24-5.39-0.36-8.09-0.44c-1.13-0.04-2.11-0.34-2.92-1.1
		c-0.83-0.77-1.8-1.06-2.9-1.2c-2.24-0.29-4.44-0.58-6.41-1.94c-0.93-0.64-2.25-0.72-3.37-1.11c-0.58-0.2-1.13-0.5-1.65-0.83
		c-1.22-0.75-2.38-1.6-3.62-2.3c-2.27-1.28-4.5-2.67-6.89-3.67c-3.44-1.44-5.3-4.64-8.09-6.79c-1.09-0.84-2.2-1.66-3.18-2.62
		c-2.01-1.98-4.14-3.88-5.82-6.12c-1.65-2.2-3.64-4.07-5.34-6.2c-0.27-0.34-0.41-0.77-0.64-1.15c-0.55-0.9-1.12-1.79-1.65-2.7
		c-0.34-0.59-0.78-1.18-0.92-1.82c-0.27-1.33-0.73-2.52-1.7-3.48c-0.22-0.22-0.52-0.46-0.57-0.74c-0.4-2.15-1.64-3.85-2.7-5.68
		c-0.53-0.92-0.44-2.19-0.74-3.28c-0.21-0.77-0.63-1.48-0.91-2.24c-0.46-1.28-1.05-2.55-1.29-3.88c-0.26-1.44-0.47-2.84-1.4-4.03
		c-0.81-1.04-0.99-2.29-1.03-3.56c-0.09-3.08-0.17-6.16-0.27-9.23c-0.03-0.75-0.06-1.51-0.22-2.24c-0.29-1.29-0.32-2.53-0.21-3.88
		c0.37-4.69,0.54-9.4,0.68-14.11c0.05-1.8,0.22-3.47,1.3-5c0.8-1.14,1.09-2.48,1.15-3.92c0.08-1.8,0.24-3.63,1.84-4.95
		c0.76-0.63,0.83-1.67,0.73-2.64c-0.18-1.77-0.09-3.42,1.7-4.43c0.1-0.06,0.22-0.18,0.24-0.29c0.42-2.22,2.21-3.71,3.03-5.72
		c0.39-0.96,1.08-1.8,1.61-2.72c0.33-0.58,0.76-1.16,0.89-1.79c0.2-0.92,0.68-1.56,1.33-2.2c0.7-0.69,1.27-1.52,1.87-2.31
		c1-1.34,1.95-2.73,2.98-4.05c1.34-1.71,2.72-3.39,4.11-5.06c0.27-0.33,0.65-0.58,0.99-0.84c0.35-0.26,0.75-0.47,1.08-0.75
		c1.75-1.49,3.49-2.99,5.22-4.51c0.37-0.33,0.63-0.78,0.99-1.13c0.35-0.34,0.7-0.83,1.12-0.91c1.14-0.23,1.87-0.94,2.62-1.73
		c0.42-0.44,0.99-0.73,1.5-1.08c0.88-0.58,1.76-1.15,2.64-1.73c0.1-0.07,0.18-0.21,0.29-0.24c2.57-0.51,4.53-2.34,6.92-3.22
		c0.76-0.28,1.64-0.47,2.22-0.97c1.25-1.07,2.69-1.54,4.23-1.92c0.84-0.21,1.65-0.59,2.4-1.02c1.23-0.71,2.49-1.15,3.93-1.08
		c2.12,0.1,4.03-0.32,5.8-1.72c0.84-0.66,2.23-0.88,3.37-0.87c4.41,0.04,8.79-0.2,13.16-0.71c1.56-0.18,3.14-0.14,4.71-0.14
		c10.31-0.01,20.63,0.01,30.94,0c1.13,0,2.26-0.1,3.38-0.22c1.9-0.21,2.94-1.2,3.14-3.09c0.12-1.12,0.11-2.26,0.11-3.39
		c0-21.82,0-43.65,0.01-65.47c0-2.07,0.16-4.14,0.21-6.21c0.1-3.94-1.28-5.26-5.17-5.07c-2.38,0.12-4.77,0.21-7.16,0.21
		c-50.31,0.01-100.63,0.03-150.94-0.02c-4.51,0-9.02-0.44-13.53-0.68c-0.44-0.02-0.88-0.06-1.32-0.03c-2.04,0.13-3.9-0.24-5.8-1.17
		c-1.46-0.72-3.28-0.7-4.91-1.09c-0.83-0.2-1.75-0.41-2.37-0.93c-1.02-0.85-2.12-1.3-3.4-1.44c-0.75-0.08-1.51-0.13-2.24-0.29
		c-0.85-0.18-1.8-0.3-2.48-0.76c-1.09-0.75-2.44-1.14-3.4-1.89c-1.76-1.39-3.59-2.39-5.75-2.9c-0.32-0.08-0.52-0.55-0.83-0.74
		c-0.74-0.44-1.47-1.01-2.28-1.17c-1.13-0.21-1.88-0.74-2.66-1.55c-1.47-1.52-3.16-2.82-4.74-4.24c-1.39-1.26-2.63-2.73-4.16-3.78
		c-2.86-1.95-4.61-4.92-7.09-7.22c-0.49-0.46-0.84-1.09-1.19-1.68c-0.52-0.86-1.09-1.56-1.99-2.16c-1.22-0.82-2.68-1.9-3.07-3.17
		c-0.61-2-1.72-3.56-2.82-5.21c-0.13-0.19-0.09-0.5-0.19-0.72c-0.42-0.96-0.74-1.99-1.33-2.84c-0.65-0.94-1.25-1.8-1.4-3.01
		c-0.09-0.74-0.64-1.47-1.14-2.09c-0.66-0.81-1.05-1.63-1.16-2.7c-0.16-1.62-0.66-3.11-1.49-4.59c-0.8-1.42-1.15-3.19-1.33-4.85
		c-0.17-1.55-0.69-2.91-1.24-4.31c-0.35-0.91-0.64-1.9-0.71-2.87c-0.3-4.07-0.53-8.14-0.72-12.21c-0.05-1.06,0.2-2.12,0.22-3.18
		c0.04-2.77,0.01-5.53,0.06-8.3c0.01-0.87,0.07-1.77,0.31-2.6c0.33-1.14,0.89-2.21,0.55-3.47c-0.07-0.27,0.04-0.65,0.19-0.9
		c0.93-1.54,1.21-3.25,1.54-4.98c0.22-1.13,0.8-2.23,1.36-3.26c0.91-1.66,1.08-3.47,1.2-5.27c0.08-1.26,0.56-2.27,1.31-3.25
		c0.47-0.62,0.88-1.39,1.03-2.14c0.16-0.86,0.45-1.56,1.15-2.06c0.92-0.67,1.27-1.64,1.64-2.67c0.28-0.79,0.85-1.48,1.31-2.21
		c0.1-0.15,0.35-0.24,0.4-0.39c0.69-2.19,2.06-3.97,3.53-5.65c1.38-1.58,2.02-3.67,3.79-5c1.13-0.85,1.91-2.14,2.93-3.15
		c1.55-1.53,3.19-2.98,4.77-4.48c0.81-0.77,1.55-1.62,2.39-2.36c1.49-1.31,2.91-2.77,4.58-3.79c2.01-1.22,3.39-3.44,5.96-3.77
		c0.28-0.04,0.61-0.25,0.78-0.48c0.85-1.13,1.97-1.67,3.35-1.89c0.66-0.11,1.42-0.39,1.86-0.85c1.21-1.3,2.83-1.52,4.37-2
		c0.69-0.21,1.39-0.57,1.95-1.03c1.02-0.84,2.13-1.33,3.45-1.29c1.82,0.06,3.45-0.41,4.95-1.48c0.59-0.42,1.37-0.65,2.1-0.76
		c2.84-0.42,5.65-1.12,8.58-0.92c0.57,0.04,1.26-0.24,1.74-0.59c1.24-0.91,2.6-1.08,4.09-1.08c42.39,0,84.78-0.03,127.17-0.05
		c13.14-0.01,26.29,0.02,39.43,0c1.12,0,2.25-0.17,3.37-0.28c0.93-0.09,1.51-0.64,1.68-1.53c0.27-1.41,0.66-2.83,0.66-4.25
		c0.04-10.82,0.02-21.63-0.02-32.45c-0.01-1.78,0.1-3.5,0.74-5.18c0.92-2.43,1.23-4.97,1.21-7.58c-0.02-2.7,0.17-5.4,0.31-8.1
		c0.07-1.28,0.4-2.49,1.37-3.42c0.93-0.89,1.26-1.99,1.22-3.25c-0.02-0.69,0.02-1.38,0-2.08c-0.03-0.88,0.24-1.64,0.96-2.14
		c1.29-0.89,1.6-2.21,1.66-3.63c0.06-1.3,0.25-2.48,1.44-3.3c0.33-0.22,0.53-0.7,0.67-1.1c0.47-1.3,0.76-2.68,2.06-3.49
		c0.14-0.09,0.29-0.3,0.3-0.46c0.15-1.89,1.34-3.16,2.49-4.51c0.37-0.43,0.38-1.16,0.59-1.74c0.19-0.52,0.33-1.09,0.66-1.51
		c0.65-0.82,1.42-1.55,2.14-2.32c1.32-1.41,2.65-2.81,3.97-4.22c0.13-0.14,0.31-0.25,0.38-0.41c0.71-1.61,1.65-2.98,3.03-4.16
		c0.75-0.64,1.28-1.48,2.32-1.74c0.3-0.07,0.61-0.22,0.83-0.43c1.48-1.33,2.96-2.65,4.4-4.02c1.04-0.99,2.01-2.04,3.02-3.05
		c0.09-0.09,0.2-0.2,0.31-0.21c2.05-0.2,3.36-1.85,5.11-2.64c0.95-0.43,1.8-1.1,2.7-1.65c0.32-0.2,0.63-0.46,0.98-0.54
		c1.61-0.37,3.08-0.93,4.31-2.15c0.48-0.48,1.35-0.66,2.07-0.81c1.43-0.3,2.72-0.84,4.02-1.52c1.2-0.62,2.61-0.82,3.92-1.24
		c1.13-0.36,2.35-0.57,3.34-1.17c2.05-1.24,4.33-1.31,6.54-1.42c3.95-0.2,7.88-0.37,11.68-1.63c1.64-0.54,3.33-0.44,5.03-0.09
		c1.16,0.24,2.35,0.31,3.53,0.44c0.25,0.03,0.52-0.02,0.75,0.07c2.93,1.16,6.04,1.03,9.09,1.34c0.37,0.04,0.75,0.11,1.13,0.09
		c2.08-0.13,3.95,0.35,5.72,1.51c0.75,0.49,1.74,0.66,2.65,0.85c1.65,0.34,3.33,0.52,4.76,1.61c1.42,1.08,3.22,0.96,4.87,1.27
		c1.03,0.19,1.96,0.42,2.55,1.38c0.06,0.11,0.15,0.25,0.25,0.28c2.35,0.56,4.02,2.41,6.22,3.26c0.73,0.28,1.37,0.79,2.01,1.26
		c0.45,0.33,0.76,0.95,1.25,1.1c1.59,0.49,2.82,1.49,4.08,2.49c0.24,0.19,0.55,0.31,0.78,0.52c3.37,3.07,6.76,6.11,10.07,9.24
		c0.9,0.85,1.55,1.97,2.35,2.93c0.59,0.7,1.17,1.47,1.91,1.99c1.92,1.36,2.19,3.85,3.92,5.38c1.09,0.96,2.12,2.29,2.54,3.65
		c0.64,2.09,1.76,3.83,2.96,5.57c0.16,0.24,0.18,0.6,0.21,0.91c0.1,1.13,0.58,2.08,1.46,2.76c0.94,0.73,1.22,1.63,1.23,2.79
		c0,1.72,0.36,3.37,1.62,4.69c0.74,0.78,0.99,1.72,0.95,2.77c-0.07,1.74,0.27,3.29,1.34,4.78c0.61,0.85,0.83,2.1,0.9,3.19
		c0.22,3.51,0.27,7.03,0.44,10.55c0.04,0.81,0.19,1.63,0.44,2.4c0.44,1.37,0.32,2.7,0.03,4.08c-0.25,1.22-0.37,2.48-0.42,3.73
		c-0.16,3.95-0.27,7.91-0.36,11.86c-0.02,1.07-0.34,2-1.11,2.71c-0.96,0.89-1.32,1.98-1.23,3.23c0.14,1.92-0.28,3.58-1.69,4.99
		c-0.85,0.86-0.94,2.04-0.91,3.18c0.05,1.58-0.28,2.9-1.57,4.03c-0.63,0.55-0.97,1.62-1.09,2.5c-0.13,0.96-0.44,1.68-1.17,2.24
		c-0.78,0.6-1.24,1.4-1.45,2.36c-0.05,0.25-0.05,0.53-0.18,0.73c-1.08,1.66-2.12,3.35-3.29,4.94c-1.4,1.91-2.92,3.73-4.4,5.59
		c-1.12,1.41-2.18,2.87-3.38,4.22c-1.19,1.34-2.51,2.56-3.79,3.83c-0.27,0.26-0.54,0.54-0.86,0.73c-2,1.18-3.48,2.97-5.24,4.41
		c-1.55,1.27-3.12,2.89-4.96,3.51c-2.37,0.8-4.24,2.36-6.45,3.38c-1.49,0.68-2.87,1.69-4.46,2.26c-0.17,0.06-0.38,0.16-0.47,0.3
		c-1.04,1.6-2.59,1.91-4.38,2.02c-0.91,0.06-1.82,0.73-2.65,1.24c-1.2,0.73-2.34,1.15-3.85,1.08c-2.41-0.1-4.88,0.03-6.93,1.75
		c-0.98,0.82-2.13,1.29-3.5,0.86c-0.52-0.16-1.13-0.13-1.69-0.09c-4.13,0.29-8.26,0.63-12.4,0.9c-1.75,0.11-3.52,0.14-5.27,0.12
		c-5.22-0.04-10.44-0.16-15.65-0.16c-5.15,0-10.31,0.11-15.46,0.18c-0.5,0.01-1.01,0.02-1.5,0.09c-1.63,0.24-2.2,0.73-2.46,2.37
		c-0.2,1.3-0.29,2.62-0.29,3.94c0,2.13,0.18,4.27,0.18,6.4c0.02,21.26,0,42.51,0.02,63.77c0,1.25,0.13,2.51,0.34,3.74
		c0.35,1.99,0.8,2.4,2.83,2.62c1.62,0.18,3.25,0.33,4.88,0.33c27.36,0.02,54.72,0.01,82.07,0.01
		C611.84,479.16,611.84,479.13,611.84,479.1z M389.72,397.41c-24.58,0-49.17,0-73.75,0c-3.71,0-7.42,0-11.13,0.13
		c-1.09,0.04-2.42,0.21-3.19,0.86c-1.47,1.24-3.07,1.59-4.85,1.7c-1.34,0.09-2.6,0.36-3.41,1.65c-0.24,0.39-0.76,0.81-1.19,0.84
		c-2.61,0.2-3.86,2.43-5.65,3.8c-1.67,1.28-3.01,2.98-4.5,4.49c-0.7,0.71-1.31,1.56-2.13,2.1c-1.1,0.73-1.64,1.65-1.81,2.91
		c-0.11,0.79-0.17,1.66-0.98,2.15c-1.13,0.69-1.53,1.83-1.72,3.01c-0.18,1.09-0.53,2.02-1.25,2.88c-0.83,0.99-1.1,2.19-1.19,3.49
		c-0.2,3.07-0.44,6.13-0.8,9.18c-0.15,1.21-0.18,2.35,0.04,3.54c0.25,1.35,0.51,2.74,0.46,4.1c-0.16,4.15,2.16,7.51,3.39,11.22
		c0.09,0.28,0.4,0.47,0.58,0.73c0.51,0.77,1.01,1.56,1.5,2.34c0.43,0.69,0.86,1.38,1.24,2.1c1.19,2.21,3.36,3.53,4.95,5.37
		c0.82,0.94,1.6,1.99,2.61,2.68c3.12,2.11,5.74,5.12,9.79,5.63c0.29,0.04,0.6,0.22,0.84,0.4c2.02,1.47,4.29,2.02,6.75,1.92
		c0.37-0.02,0.75,0.08,1.12,0.12c3.56,0.32,7.11,0.9,10.67,0.9c41.06,0.06,82.12,0.04,123.17,0.04c11.57,0,23.14,0.01,34.71,0.01
		c2.6,0,3.73-0.97,3.85-3.54c0.1-2.07,0.01-4.14,0.01-6.21c0-21.94,0-43.89,0-65.83c0-4.23-0.49-4.71-4.79-4.71
		C445.31,397.41,417.51,397.41,389.72,397.41z M610.39,602.66c23.26,0,46.53,0.01,69.79,0c5.03,0,10.06-0.06,15.09-0.08
		c1.09,0,2.23,0,3.02-0.81c1.44-1.5,3.26-1.77,5.16-1.83c1.21-0.04,2.16-0.44,2.94-1.4c0.41-0.5,1.02-1.05,1.61-1.15
		c2.29-0.37,3.52-2.31,5.23-3.48c1.61-1.1,2.83-2.79,4.2-4.25c0.93-1,1.75-2.11,2.75-3.04c0.82-0.76,1.34-1.59,1.64-2.66
		c0.21-0.75,0.59-1.58,1.16-2.06c1.05-0.89,1.51-2.03,1.65-3.27c0.1-0.94,0.44-1.65,1.02-2.35c0.82-0.99,1.2-2.14,1.3-3.45
		c0.27-3.49,0.65-6.97,0.98-10.46c0.04-0.43,0.1-0.89,0.01-1.31c-0.71-3.14-0.81-6.34-1.07-9.53c-0.07-0.86-0.56-1.78-1.1-2.49
		c-0.57-0.77-0.95-1.56-1.33-2.43c-1.04-2.38-2.24-4.68-3.39-7.01c-0.05-0.11-0.15-0.2-0.25-0.28c-3-2.63-5.27-6.02-8.7-8.2
		c-0.26-0.16-0.51-0.41-0.63-0.69c-0.49-1.06-1.41-1.54-2.43-1.95c-0.46-0.19-0.96-0.42-1.26-0.78c-0.91-1.11-2.12-1.5-3.46-1.72
		c-1.19-0.2-2.23-0.61-3.15-1.53c-0.55-0.55-1.54-0.79-2.36-0.9c-1.49-0.19-3.01-0.14-4.51-0.27c-4.19-0.35-8.33-1.12-12.57-0.95
		c-3.83,0.15-7.67,0.08-11.51,0.08c-47.41-0.03-94.82-0.06-142.23-0.1c-0.75,0-1.51-0.05-2.25-0.13c-1.94-0.22-3.3,0.78-3.53,2.74
		c-0.14,1.18-0.15,2.38-0.16,3.58c-0.01,8.17,0,16.35,0,24.52c0,14.27,0.01,28.55,0.02,42.82c0,1.45,0,2.9,0.1,4.34
		c0.1,1.52,1.03,2.38,2.55,2.47c0.56,0.04,1.13,0.01,1.7,0.01C554.43,602.66,582.41,602.66,610.39,602.66z M522.09,327.55
		C522.09,327.55,522.09,327.55,522.09,327.55c0.01,6.47-0.01,12.95,0.02,19.42c0.01,1.31,0.16,2.63,0.36,3.93
		c0.2,1.3,0.96,1.96,2.25,2.14c0.43,0.06,0.88,0.04,1.32,0.04c11.88,0,23.76,0.02,35.64-0.03c1.36-0.01,2.74-0.28,4.07-0.62
		c3.16-0.82,6.31-1.68,9.62-1.66c1.04,0.01,2-0.27,2.7-1.11c0.68-0.83,1.56-1.17,2.58-1.41c0.71-0.17,1.54-0.46,1.98-0.98
		c1.52-1.82,3.87-2.48,5.48-4.15c0.99-1.02,2.18-1.85,3.24-2.82c1.15-1.06,2.29-2.14,3.33-3.3c0.52-0.58,1.04-1.32,1.19-2.06
		c0.2-1.01,0.64-1.74,1.41-2.33c0.85-0.66,1.28-1.59,1.33-2.6c0.06-1.15,0.55-2.05,1.24-2.88c0.66-0.8,0.94-1.7,1.14-2.72
		c0.6-3.19,1.33-6.37,2.06-9.54c0.35-1.49,0.33-2.92,0.14-4.45c-0.34-2.74-0.78-5.42-1.84-7.99c-0.25-0.6-0.1-1.37-0.15-2.06
		c-0.14-1.72-0.52-3.33-1.85-4.6c-0.43-0.41-0.72-1.02-0.93-1.59c-0.77-2.03-2.55-3.55-2.91-5.79c-0.03-0.16-0.2-0.35-0.35-0.43
		c-1.54-0.84-2.31-2.43-3.53-3.58c-1.26-1.2-2.49-2.44-3.77-3.62c-0.59-0.54-1.23-1.05-1.94-1.4c-1.82-0.92-3.27-2.47-5.3-3.02
		c-0.17-0.05-0.31-0.22-0.43-0.35c-1-1.07-2.23-1.52-3.68-1.63c-2.08-0.17-4.06-0.64-5.88-1.8c-0.79-0.5-1.9-0.69-2.86-0.71
		c-3.64-0.08-7.29-0.09-10.93,0.02c-1.09,0.03-2.29,0.32-3.22,0.86c-1.52,0.88-3.04,1.36-4.79,1.44c-1.22,0.06-2.58,0.23-3.35,1.39
		c-0.56,0.83-1.3,1.01-2.2,1.21c-0.87,0.19-1.98,0.53-2.43,1.19c-1.14,1.65-3.06,2.36-4.26,3.88c-0.18,0.22-0.52,0.39-0.81,0.44
		c-1.41,0.24-2.3,1.29-2.74,2.38c-0.68,1.71-2.17,2.74-3.03,4.27c-0.2,0.36-0.57,0.72-0.94,0.88c-1.33,0.59-1.69,1.74-1.95,3.01
		c-0.12,0.59-0.25,1.35-0.66,1.67c-1.81,1.42-2.15,3.31-1.96,5.4c0.12,1.27-0.22,2.37-1.08,3.29c-0.86,0.93-1.21,2.02-1.21,3.27
		c0,1.07-0.09,2.13-0.09,3.2C522.08,315.61,522.09,321.58,522.09,327.55z M477.89,670.04c-0.29-5.9,0.45-13.07-0.36-20.22
		c-0.2-1.77-0.51-2.32-2.24-2.73c-0.6-0.14-1.24-0.16-1.87-0.16c-11.51-0.02-23.02-0.04-34.52-0.03c-1.19,0-2.41,0.05-3.55,0.35
		c-3.52,0.92-7.07,1.69-10.66,2.3c-1.08,0.18-2.09,0.79-3.12,1.22c-0.79,0.33-1.54,0.79-2.36,1.04c-0.92,0.29-1.79,0.58-2.34,1.44
		c-0.46,0.71-1.06,1.21-1.92,1.41c-0.35,0.08-0.71,0.27-0.99,0.5c-2.1,1.67-3.97,3.63-6.31,4.99c-0.4,0.23-0.62,0.77-0.9,1.18
		c-0.55,0.83-1.1,1.66-1.63,2.5c-0.37,0.58-0.69,1.19-1.06,1.77c-0.32,0.52-0.58,1.14-1.03,1.5c-1.11,0.9-1.58,2.02-1.74,3.41
		c-0.07,0.62-0.43,1.35-0.9,1.74c-1.29,1.07-1.76,2.4-1.68,4c0.11,2.36-0.55,4.6-1.2,6.81c-1.05,3.59-1.38,7.1-0.13,10.72
		c0.68,1.95,1.16,3.97,1.63,5.98c0.44,1.87,0.52,3.86,2.09,5.29c0.21,0.19,0.25,0.57,0.41,0.84c1.27,2.21,2.51,4.44,3.85,6.61
		c0.42,0.68,1.11,1.18,1.67,1.77c0.56,0.59,1.09,1.21,1.65,1.79c0.77,0.81,1.52,1.65,2.36,2.38c1.18,1.03,2.56,1.85,3.62,2.98
		c0.97,1.02,2.03,1.59,3.36,1.89c0.69,0.15,1.44,0.5,1.92,0.99c0.86,0.86,1.84,1.18,2.99,1.39c1.33,0.25,2.72,0.59,3.89,1.25
		c1.42,0.8,2.87,1.29,4.45,1.31c4.4,0.06,8.8,0.01,13.21,0.03c1.07,0,2.01-0.29,2.68-1.12c0.6-0.74,1.35-1.08,2.27-1.17
		c0.94-0.09,1.89-0.12,2.79-0.37c0.81-0.22,1.72-0.53,2.27-1.1c0.89-0.92,1.81-1.45,3.09-1.57c0.5-0.05,1.14-0.38,1.4-0.78
		c1.13-1.74,3.19-2.37,4.48-3.91c0.22-0.26,0.65-0.37,1-0.5c1.41-0.5,2.16-1.62,2.83-2.85c0.35-0.64,0.75-1.27,1.21-1.84
		c1.21-1.51,2.46-2.99,3.67-4.5c0.19-0.23,0.33-0.58,0.33-0.87c0-1.16,0.62-2.06,1.3-2.86c0.95-1.11,1.37-2.33,1.47-3.77
		c0.11-1.63,0.36-3.23,1.56-4.54c0.39-0.42,0.62-1.12,0.66-1.71c0.18-2.82,0.35-5.64,0.38-8.46
		C477.93,681.36,477.89,676.33,477.89,670.04z"/>
	<path id="SVGID_x5F_1_x5F_" class="st4" d="M131.5,500c0-203.51,164.98-368.5,368.5-368.5c203.51,0,368.5,164.98,368.5,368.5
		S703.51,868.5,500,868.5S131.5,703.51,131.5,500z"/>
	<text class="st5">	<textPath  xlink:href="#SVGID_x5F_1_x5F_" startOffset="100%">
<tspan  style="fill:#30D5C8; font-family:'Poppins-Light'; font-size:63.7964px; letter-spacing:300;">SVERIGES VÅRDGIVARE</tspan>	</textPath>
</text>
	<path id="SVGID_x5F_00000165948102475214026860000005240812087098511541_x5F_" class="st4" d="M867.82,485.97
		c7.75,203.37-150.42,381.99-353.94,381.99S131.9,717.54,131.9,514.03s150.42-381.99,353.94-381.99S859.81,275.67,867.82,485.97z"/>
	<text class="st5">	<textPath  xlink:href="#SVGID_x5F_00000165948102475214026860000005240812087098511541_x5F_" startOffset="100%">
<tspan  style="fill:#30D5C8; font-family:'Poppins-Light'; font-size:63.7964px; letter-spacing:300;">SVERIGES VÅRDGIVARE</tspan>	</textPath>
</text>
	<circle class="st6" cx="500" cy="500" r="436.04"/>
	<circle class="st7" cx="500" cy="500" r="455.83"/>
</g>
<g id="ROSA" class="st0">
	<circle class="st8" cx="500" cy="500" r="314.65"/>
	<path id="Symbol_00000121998302899035329030000012286982737580538036_" class="st3" d="M611.84,479.1
		c22.08,0,44.15-0.01,66.23,0.01c5.91,0,11.82,0.07,17.73,0.15c1.19,0.02,2.37,0.25,3.55,0.41c1.36,0.18,2.72,0.37,4.08,0.61
		c0.6,0.11,1.19,0.34,1.78,0.52c1.13,0.34,2.26,0.69,3.39,1.04c1.07,0.33,2.22,0.5,3.19,1.01c1.6,0.84,3.22,1.37,5.03,1.31
		c1.69-0.06,3.21,0.17,4.25,1.83c0.33,0.53,1.24,0.88,1.93,0.97c1.13,0.16,1.97,0.69,2.81,1.39c0.66,0.55,1.45,0.96,2.21,1.39
		c0.65,0.37,1.33,0.67,1.98,1.02c0.33,0.18,0.62,0.51,0.97,0.58c2.35,0.47,4,2.18,5.97,3.32c0.16,0.09,0.38,0.16,0.47,0.31
		c0.68,1.19,1.93,1.72,2.91,2.55c2.14,1.82,4.07,3.88,6.07,5.86c1.92,1.89,3.83,3.79,5.71,5.73c0.56,0.58,1,1.27,1.49,1.91
		c0.3,0.39,0.55,0.86,0.92,1.17c0.77,0.66,1.21,1.6,1.84,2.27c1.29,1.38,1.91,3.04,2.78,4.6c0.24,0.43,0.7,0.72,0.96,1.14
		c0.35,0.57,0.61,1.19,0.89,1.8c0.05,0.11-0.01,0.28,0.06,0.37c1.81,2.37,2.07,5.6,4.35,7.7c0.63,0.58,0.96,1.29,0.79,2.2
		c-0.4,2.21,0.28,4.18,1.3,6.12c0.54,1.03,0.97,2.2,1.12,3.35c0.17,1.34,0.5,2.58,1.15,3.75c0.44,0.79,0.63,1.57,0.52,2.51
		c-0.08,0.7,0.3,1.44,0.43,2.16c0.2,1.09,0.46,2.19,0.52,3.29c0.14,2.69,0.19,5.39,0.27,8.09c0.01,0.38,0.06,0.75,0.04,1.13
		c-0.1,1.62-0.24,3.24-0.32,4.87c-0.15,3.19-0.2,6.39-0.42,9.58c-0.07,1.03-0.46,2.09-0.91,3.03c-0.78,1.61-1.38,3.23-1.28,5.05
		c0.07,1.32-0.36,2.4-1.3,3.4c-0.55,0.59-0.79,1.53-1,2.35c-0.21,0.84-0.22,1.74-0.31,2.62c-0.03,0.25,0.02,0.56-0.11,0.74
		c-1.53,2.12-2.09,4.78-3.74,6.82c-0.65,0.8-1.26,1.57-1.14,2.68c0.09,0.84-0.32,1.41-0.91,1.96c-0.5,0.46-1.09,0.95-1.31,1.55
		c-0.59,1.62-1.38,3.08-2.56,4.33c-0.63,0.67-1.25,1.36-1.86,2.05c-0.79,0.88-1.64,1.71-2.36,2.65c-2.27,2.94-5,5.39-7.71,7.9
		c-0.95,0.88-1.74,1.91-2.81,2.71c-2.6,1.94-5.08,4.04-7.64,6.05c-0.49,0.38-1.09,0.86-1.64,0.87c-1.54,0.03-2.55,0.88-3.59,1.81
		c-0.32,0.29-0.76,0.44-1.15,0.63c-0.45,0.22-0.99,0.31-1.37,0.62c-1.69,1.39-3.6,2.22-5.77,2.46c-0.18,0.02-0.38,0.11-0.5,0.24
		c-1.48,1.59-3.37,1.98-5.46,2.1c-1.44,0.08-2.79,0.59-3.88,1.69c-0.44,0.44-1.27,0.8-1.86,0.73c-2.37-0.3-4.59,0.6-6.9,0.69
		c-0.5,0.02-1,0.18-1.5,0.14c-1.5-0.12-2.83,0.37-4.19,0.91c-0.91,0.36-1.92,0.53-2.9,0.65c-0.87,0.11-1.76,0.02-2.64,0.02
		c-53.33-0.01-106.66-0.03-160-0.02c-2.13,0-4.26,0.19-6.39,0.35c-1.51,0.11-1.91,0.39-2.15,1.88c-0.28,1.79-0.46,3.62-0.46,5.43
		c0.05,11.13,0.17,22.26,0.27,33.39c0.02,2.15-0.15,4.22-1.33,6.16c-0.45,0.75-0.51,1.8-0.56,2.72c-0.17,3.14-0.24,6.28-0.37,9.41
		c-0.05,1.36-0.49,2.53-1.4,3.61c-0.48,0.57-0.75,1.44-0.84,2.2c-0.25,2.07-0.43,4.08-1.96,5.75c-0.49,0.53-0.56,1.5-0.72,2.28
		c-0.18,0.86-0.18,1.75-0.37,2.61c-0.12,0.52-0.34,1.15-0.72,1.46c-0.98,0.81-1.56,1.78-1.79,3c-0.02,0.12-0.04,0.27-0.12,0.35
		c-1.49,1.59-2,3.83-3.64,5.34c-0.59,0.55-0.81,1.5-1.21,2.26c-0.4,0.76-0.68,1.62-1.23,2.25c-1.9,2.16-3.89,4.24-5.84,6.35
		c-0.09,0.09-0.22,0.18-0.24,0.29c-0.4,1.9-1.92,2.99-3.1,4.33c-0.29,0.33-0.55,0.86-0.9,0.93c-2.11,0.44-3.17,2.38-4.9,3.35
		c-0.22,0.12-0.43,0.27-0.61,0.45c-1.29,1.25-2.58,2.5-3.86,3.75c-0.13,0.13-0.26,0.35-0.41,0.38c-2.18,0.42-3.44,2.47-5.51,3.09
		c-0.12,0.04-0.24,0.09-0.34,0.16c-1.8,1.25-3.62,2.44-5.82,2.89c-0.32,0.07-0.55,0.5-0.87,0.69c-0.64,0.37-1.27,0.79-1.96,1
		c-1.68,0.51-3.38,0.82-4.74,2.13c-0.76,0.73-1.82,1.01-2.99,0.7c-1.45-0.38-2.78,0.19-3.8,1.17c-1.1,1.06-2.3,1.36-3.76,1.31
		c-2.57-0.09-5.16-0.2-7.67,0.6c-0.35,0.11-0.75,0.16-1.12,0.14c-1.93-0.14-3.74,0.31-5.49,1.07c-0.4,0.17-0.84,0.35-1.26,0.35
		c-3.18-0.02-6.39,0.43-9.49-0.86c-1.31-0.54-2.79-0.74-4.22-0.87c-2.69-0.24-5.39-0.36-8.09-0.44c-1.13-0.04-2.11-0.34-2.92-1.1
		c-0.83-0.77-1.8-1.06-2.9-1.2c-2.24-0.29-4.44-0.58-6.41-1.94c-0.93-0.64-2.25-0.72-3.37-1.11c-0.58-0.2-1.13-0.5-1.65-0.83
		c-1.22-0.75-2.38-1.6-3.62-2.3c-2.27-1.28-4.5-2.67-6.89-3.67c-3.44-1.44-5.3-4.64-8.09-6.79c-1.09-0.84-2.2-1.66-3.18-2.62
		c-2.01-1.98-4.14-3.88-5.82-6.12c-1.65-2.2-3.64-4.07-5.34-6.2c-0.27-0.34-0.41-0.77-0.64-1.15c-0.55-0.9-1.12-1.79-1.65-2.7
		c-0.34-0.59-0.78-1.18-0.92-1.82c-0.27-1.33-0.73-2.52-1.7-3.48c-0.22-0.22-0.52-0.46-0.57-0.74c-0.4-2.15-1.64-3.85-2.7-5.68
		c-0.53-0.92-0.44-2.19-0.74-3.28c-0.21-0.77-0.63-1.48-0.91-2.24c-0.46-1.28-1.05-2.55-1.29-3.88c-0.26-1.44-0.47-2.84-1.4-4.03
		c-0.81-1.04-0.99-2.29-1.03-3.56c-0.09-3.08-0.17-6.16-0.27-9.23c-0.03-0.75-0.06-1.51-0.22-2.24c-0.29-1.29-0.32-2.53-0.21-3.88
		c0.37-4.69,0.54-9.4,0.68-14.11c0.05-1.8,0.22-3.47,1.3-5c0.8-1.14,1.09-2.48,1.15-3.92c0.08-1.8,0.24-3.63,1.84-4.95
		c0.76-0.63,0.83-1.67,0.73-2.64c-0.18-1.77-0.09-3.42,1.7-4.43c0.1-0.06,0.22-0.18,0.24-0.29c0.42-2.22,2.21-3.71,3.03-5.72
		c0.39-0.96,1.08-1.8,1.61-2.72c0.33-0.58,0.76-1.16,0.89-1.79c0.2-0.92,0.68-1.56,1.33-2.2c0.7-0.69,1.27-1.52,1.87-2.31
		c1-1.34,1.95-2.73,2.98-4.05c1.34-1.71,2.72-3.39,4.11-5.06c0.27-0.33,0.65-0.58,0.99-0.84c0.35-0.26,0.75-0.47,1.08-0.75
		c1.75-1.49,3.49-2.99,5.22-4.51c0.37-0.33,0.63-0.78,0.99-1.13c0.35-0.34,0.7-0.83,1.12-0.91c1.14-0.23,1.87-0.94,2.62-1.73
		c0.42-0.44,0.99-0.73,1.5-1.08c0.88-0.58,1.76-1.15,2.64-1.73c0.1-0.07,0.18-0.21,0.29-0.24c2.57-0.51,4.53-2.34,6.92-3.22
		c0.76-0.28,1.64-0.47,2.22-0.97c1.25-1.07,2.69-1.54,4.23-1.92c0.84-0.21,1.65-0.59,2.4-1.02c1.23-0.71,2.49-1.15,3.93-1.08
		c2.12,0.1,4.03-0.32,5.8-1.72c0.84-0.66,2.23-0.88,3.37-0.87c4.41,0.04,8.79-0.2,13.16-0.71c1.56-0.18,3.14-0.14,4.71-0.14
		c10.31-0.01,20.63,0.01,30.94,0c1.13,0,2.26-0.1,3.38-0.22c1.9-0.21,2.94-1.2,3.14-3.09c0.12-1.12,0.11-2.26,0.11-3.39
		c0-21.82,0-43.65,0.01-65.47c0-2.07,0.16-4.14,0.21-6.21c0.1-3.94-1.28-5.26-5.17-5.07c-2.38,0.12-4.77,0.21-7.16,0.21
		c-50.31,0.01-100.63,0.03-150.94-0.02c-4.51,0-9.02-0.44-13.53-0.68c-0.44-0.02-0.88-0.06-1.32-0.03c-2.04,0.13-3.9-0.24-5.8-1.17
		c-1.46-0.72-3.28-0.7-4.91-1.09c-0.83-0.2-1.75-0.41-2.37-0.93c-1.02-0.85-2.12-1.3-3.4-1.44c-0.75-0.08-1.51-0.13-2.24-0.29
		c-0.85-0.18-1.8-0.3-2.48-0.76c-1.09-0.75-2.44-1.14-3.4-1.89c-1.76-1.39-3.59-2.39-5.75-2.9c-0.32-0.08-0.52-0.55-0.83-0.74
		c-0.74-0.44-1.47-1.01-2.28-1.17c-1.13-0.21-1.88-0.74-2.66-1.55c-1.47-1.52-3.16-2.82-4.74-4.24c-1.39-1.26-2.63-2.73-4.16-3.78
		c-2.86-1.95-4.61-4.92-7.09-7.22c-0.49-0.46-0.84-1.09-1.19-1.68c-0.52-0.86-1.09-1.56-1.99-2.16c-1.22-0.82-2.68-1.9-3.07-3.17
		c-0.61-2-1.72-3.56-2.82-5.21c-0.13-0.19-0.09-0.5-0.19-0.72c-0.42-0.96-0.74-1.99-1.33-2.84c-0.65-0.94-1.25-1.8-1.4-3.01
		c-0.09-0.74-0.64-1.47-1.14-2.09c-0.66-0.81-1.05-1.63-1.16-2.7c-0.16-1.62-0.66-3.11-1.49-4.59c-0.8-1.42-1.15-3.19-1.33-4.85
		c-0.17-1.55-0.69-2.91-1.24-4.31c-0.35-0.91-0.64-1.9-0.71-2.87c-0.3-4.07-0.53-8.14-0.72-12.21c-0.05-1.06,0.2-2.12,0.22-3.18
		c0.04-2.77,0.01-5.53,0.06-8.3c0.01-0.87,0.07-1.77,0.31-2.6c0.33-1.14,0.89-2.21,0.55-3.47c-0.07-0.27,0.04-0.65,0.19-0.9
		c0.93-1.54,1.21-3.25,1.54-4.98c0.22-1.13,0.8-2.23,1.36-3.26c0.91-1.66,1.08-3.47,1.2-5.27c0.08-1.26,0.56-2.27,1.31-3.25
		c0.47-0.62,0.88-1.39,1.03-2.14c0.16-0.86,0.45-1.56,1.15-2.06c0.92-0.67,1.27-1.64,1.64-2.67c0.28-0.79,0.85-1.48,1.31-2.21
		c0.1-0.15,0.35-0.24,0.4-0.39c0.69-2.19,2.06-3.97,3.53-5.65c1.38-1.58,2.02-3.67,3.79-5c1.13-0.85,1.91-2.14,2.93-3.15
		c1.55-1.53,3.19-2.98,4.77-4.48c0.81-0.77,1.55-1.62,2.39-2.36c1.49-1.31,2.91-2.77,4.58-3.79c2.01-1.22,3.39-3.44,5.96-3.77
		c0.28-0.04,0.61-0.25,0.78-0.48c0.85-1.13,1.97-1.67,3.35-1.89c0.66-0.11,1.42-0.39,1.86-0.85c1.21-1.3,2.83-1.52,4.37-2
		c0.69-0.21,1.39-0.57,1.95-1.03c1.02-0.84,2.13-1.33,3.45-1.29c1.82,0.06,3.45-0.41,4.95-1.48c0.59-0.42,1.37-0.65,2.1-0.76
		c2.84-0.42,5.65-1.12,8.58-0.92c0.57,0.04,1.26-0.24,1.74-0.59c1.24-0.91,2.6-1.08,4.09-1.08c42.39,0,84.78-0.03,127.17-0.05
		c13.14-0.01,26.29,0.02,39.43,0c1.12,0,2.25-0.17,3.37-0.28c0.93-0.09,1.51-0.64,1.68-1.53c0.27-1.41,0.66-2.83,0.66-4.25
		c0.04-10.82,0.02-21.63-0.02-32.45c-0.01-1.78,0.1-3.5,0.74-5.18c0.92-2.43,1.23-4.97,1.21-7.58c-0.02-2.7,0.17-5.4,0.31-8.1
		c0.07-1.28,0.4-2.49,1.37-3.42c0.93-0.89,1.26-1.99,1.22-3.25c-0.02-0.69,0.02-1.38,0-2.08c-0.03-0.88,0.24-1.64,0.96-2.14
		c1.29-0.89,1.6-2.21,1.66-3.63c0.06-1.3,0.25-2.48,1.44-3.3c0.33-0.22,0.53-0.7,0.67-1.1c0.47-1.3,0.76-2.68,2.06-3.49
		c0.14-0.09,0.29-0.3,0.3-0.46c0.15-1.89,1.34-3.16,2.49-4.51c0.37-0.43,0.38-1.16,0.59-1.74c0.19-0.52,0.33-1.09,0.66-1.51
		c0.65-0.82,1.42-1.55,2.14-2.32c1.32-1.41,2.65-2.81,3.97-4.22c0.13-0.14,0.31-0.25,0.38-0.41c0.71-1.61,1.65-2.98,3.03-4.16
		c0.75-0.64,1.28-1.48,2.32-1.74c0.3-0.07,0.61-0.22,0.83-0.43c1.48-1.33,2.96-2.65,4.4-4.02c1.04-0.99,2.01-2.04,3.02-3.05
		c0.09-0.09,0.2-0.2,0.31-0.21c2.05-0.2,3.36-1.85,5.11-2.64c0.95-0.43,1.8-1.1,2.7-1.65c0.32-0.2,0.63-0.46,0.98-0.54
		c1.61-0.37,3.08-0.93,4.31-2.15c0.48-0.48,1.35-0.66,2.07-0.81c1.43-0.3,2.72-0.84,4.02-1.52c1.2-0.62,2.61-0.82,3.92-1.24
		c1.13-0.36,2.35-0.57,3.34-1.17c2.05-1.24,4.33-1.31,6.54-1.42c3.95-0.2,7.88-0.37,11.68-1.63c1.64-0.54,3.33-0.44,5.03-0.09
		c1.16,0.24,2.35,0.31,3.53,0.44c0.25,0.03,0.52-0.02,0.75,0.07c2.93,1.16,6.04,1.03,9.09,1.34c0.37,0.04,0.75,0.11,1.13,0.09
		c2.08-0.13,3.95,0.35,5.72,1.51c0.75,0.49,1.74,0.66,2.65,0.85c1.65,0.34,3.33,0.52,4.76,1.61c1.42,1.08,3.22,0.96,4.87,1.27
		c1.03,0.19,1.96,0.42,2.55,1.38c0.06,0.11,0.15,0.25,0.25,0.28c2.35,0.56,4.02,2.41,6.22,3.26c0.73,0.28,1.37,0.79,2.01,1.26
		c0.45,0.33,0.76,0.95,1.25,1.1c1.59,0.49,2.82,1.49,4.08,2.49c0.24,0.19,0.55,0.31,0.78,0.52c3.37,3.07,6.76,6.11,10.07,9.24
		c0.9,0.85,1.55,1.97,2.35,2.93c0.59,0.7,1.17,1.47,1.91,1.99c1.92,1.36,2.19,3.85,3.92,5.38c1.09,0.96,2.12,2.29,2.54,3.65
		c0.64,2.09,1.76,3.83,2.96,5.57c0.16,0.24,0.18,0.6,0.21,0.91c0.1,1.13,0.58,2.08,1.46,2.76c0.94,0.73,1.22,1.63,1.23,2.79
		c0,1.72,0.36,3.37,1.62,4.69c0.74,0.78,0.99,1.72,0.95,2.77c-0.07,1.74,0.27,3.29,1.34,4.78c0.61,0.85,0.83,2.1,0.9,3.19
		c0.22,3.51,0.27,7.03,0.44,10.55c0.04,0.81,0.19,1.63,0.44,2.4c0.44,1.37,0.32,2.7,0.03,4.08c-0.25,1.22-0.37,2.48-0.42,3.73
		c-0.16,3.95-0.27,7.91-0.36,11.86c-0.02,1.07-0.34,2-1.11,2.71c-0.96,0.89-1.32,1.98-1.23,3.23c0.14,1.92-0.28,3.58-1.69,4.99
		c-0.85,0.86-0.94,2.04-0.91,3.18c0.05,1.58-0.28,2.9-1.57,4.03c-0.63,0.55-0.97,1.62-1.09,2.5c-0.13,0.96-0.44,1.68-1.17,2.24
		c-0.78,0.6-1.24,1.4-1.45,2.36c-0.05,0.25-0.05,0.53-0.18,0.73c-1.08,1.66-2.12,3.35-3.29,4.94c-1.4,1.91-2.92,3.73-4.4,5.59
		c-1.12,1.41-2.18,2.87-3.38,4.22c-1.19,1.34-2.51,2.56-3.79,3.83c-0.27,0.26-0.54,0.54-0.86,0.73c-2,1.18-3.48,2.97-5.24,4.41
		c-1.55,1.27-3.12,2.89-4.96,3.51c-2.37,0.8-4.24,2.36-6.45,3.38c-1.49,0.68-2.87,1.69-4.46,2.26c-0.17,0.06-0.38,0.16-0.47,0.3
		c-1.04,1.6-2.59,1.91-4.38,2.02c-0.91,0.06-1.82,0.73-2.65,1.24c-1.2,0.73-2.34,1.15-3.85,1.08c-2.41-0.1-4.88,0.03-6.93,1.75
		c-0.98,0.82-2.13,1.29-3.5,0.86c-0.52-0.16-1.13-0.13-1.69-0.09c-4.13,0.29-8.26,0.63-12.4,0.9c-1.75,0.11-3.52,0.14-5.27,0.12
		c-5.22-0.04-10.44-0.16-15.65-0.16c-5.15,0-10.31,0.11-15.46,0.18c-0.5,0.01-1.01,0.02-1.5,0.09c-1.63,0.24-2.2,0.73-2.46,2.37
		c-0.2,1.3-0.29,2.62-0.29,3.94c0,2.13,0.18,4.27,0.18,6.4c0.02,21.26,0,42.51,0.02,63.77c0,1.25,0.13,2.51,0.34,3.74
		c0.35,1.99,0.8,2.4,2.83,2.62c1.62,0.18,3.25,0.33,4.88,0.33c27.36,0.02,54.72,0.01,82.07,0.01
		C611.84,479.16,611.84,479.13,611.84,479.1z M389.72,397.41c-24.58,0-49.17,0-73.75,0c-3.71,0-7.42,0-11.13,0.13
		c-1.09,0.04-2.42,0.21-3.19,0.86c-1.47,1.24-3.07,1.59-4.85,1.7c-1.34,0.09-2.6,0.36-3.41,1.65c-0.24,0.39-0.76,0.81-1.19,0.84
		c-2.61,0.2-3.86,2.43-5.65,3.8c-1.67,1.28-3.01,2.98-4.5,4.49c-0.7,0.71-1.31,1.56-2.13,2.1c-1.1,0.73-1.64,1.65-1.81,2.91
		c-0.11,0.79-0.17,1.66-0.98,2.15c-1.13,0.69-1.53,1.83-1.72,3.01c-0.18,1.09-0.53,2.02-1.25,2.88c-0.83,0.99-1.1,2.19-1.19,3.49
		c-0.2,3.07-0.44,6.13-0.8,9.18c-0.15,1.21-0.18,2.35,0.04,3.54c0.25,1.35,0.51,2.74,0.46,4.1c-0.16,4.15,2.16,7.51,3.39,11.22
		c0.09,0.28,0.4,0.47,0.58,0.73c0.51,0.77,1.01,1.56,1.5,2.34c0.43,0.69,0.86,1.38,1.24,2.1c1.19,2.21,3.36,3.53,4.95,5.37
		c0.82,0.94,1.6,1.99,2.61,2.68c3.12,2.11,5.74,5.12,9.79,5.63c0.29,0.04,0.6,0.22,0.84,0.4c2.02,1.47,4.29,2.02,6.75,1.92
		c0.37-0.02,0.75,0.08,1.12,0.12c3.56,0.32,7.11,0.9,10.67,0.9c41.06,0.06,82.12,0.04,123.17,0.04c11.57,0,23.14,0.01,34.71,0.01
		c2.6,0,3.73-0.97,3.85-3.54c0.1-2.07,0.01-4.14,0.01-6.21c0-21.94,0-43.89,0-65.83c0-4.23-0.49-4.71-4.79-4.71
		C445.31,397.41,417.51,397.41,389.72,397.41z M610.39,602.66c23.26,0,46.53,0.01,69.79,0c5.03,0,10.06-0.06,15.09-0.08
		c1.09,0,2.23,0,3.02-0.81c1.44-1.5,3.26-1.77,5.16-1.83c1.21-0.04,2.16-0.44,2.94-1.4c0.41-0.5,1.02-1.05,1.61-1.15
		c2.29-0.37,3.52-2.31,5.23-3.48c1.61-1.1,2.83-2.79,4.2-4.25c0.93-1,1.75-2.11,2.75-3.04c0.82-0.76,1.34-1.59,1.64-2.66
		c0.21-0.75,0.59-1.58,1.16-2.06c1.05-0.89,1.51-2.03,1.65-3.27c0.1-0.94,0.44-1.65,1.02-2.35c0.82-0.99,1.2-2.14,1.3-3.45
		c0.27-3.49,0.65-6.97,0.98-10.46c0.04-0.43,0.1-0.89,0.01-1.31c-0.71-3.14-0.81-6.34-1.07-9.53c-0.07-0.86-0.56-1.78-1.1-2.49
		c-0.57-0.77-0.95-1.56-1.33-2.43c-1.04-2.38-2.24-4.68-3.39-7.01c-0.05-0.11-0.15-0.2-0.25-0.28c-3-2.63-5.27-6.02-8.7-8.2
		c-0.26-0.16-0.51-0.41-0.63-0.69c-0.49-1.06-1.41-1.54-2.43-1.95c-0.46-0.19-0.96-0.42-1.26-0.78c-0.91-1.11-2.12-1.5-3.46-1.72
		c-1.19-0.2-2.23-0.61-3.15-1.53c-0.55-0.55-1.54-0.79-2.36-0.9c-1.49-0.19-3.01-0.14-4.51-0.27c-4.19-0.35-8.33-1.12-12.57-0.95
		c-3.83,0.15-7.67,0.08-11.51,0.08c-47.41-0.03-94.82-0.06-142.23-0.1c-0.75,0-1.51-0.05-2.25-0.13c-1.94-0.22-3.3,0.78-3.53,2.74
		c-0.14,1.18-0.15,2.38-0.16,3.58c-0.01,8.17,0,16.35,0,24.52c0,14.27,0.01,28.55,0.02,42.82c0,1.45,0,2.9,0.1,4.34
		c0.1,1.52,1.03,2.38,2.55,2.47c0.56,0.04,1.13,0.01,1.7,0.01C554.43,602.66,582.41,602.66,610.39,602.66z M522.09,327.55
		C522.09,327.55,522.09,327.55,522.09,327.55c0.01,6.47-0.01,12.95,0.02,19.42c0.01,1.31,0.16,2.63,0.36,3.93
		c0.2,1.3,0.96,1.96,2.25,2.14c0.43,0.06,0.88,0.04,1.32,0.04c11.88,0,23.76,0.02,35.64-0.03c1.36-0.01,2.74-0.28,4.07-0.62
		c3.16-0.82,6.31-1.68,9.62-1.66c1.04,0.01,2-0.27,2.7-1.11c0.68-0.83,1.56-1.17,2.58-1.41c0.71-0.17,1.54-0.46,1.98-0.98
		c1.52-1.82,3.87-2.48,5.48-4.15c0.99-1.02,2.18-1.85,3.24-2.82c1.15-1.06,2.29-2.14,3.33-3.3c0.52-0.58,1.04-1.32,1.19-2.06
		c0.2-1.01,0.64-1.74,1.41-2.33c0.85-0.66,1.28-1.59,1.33-2.6c0.06-1.15,0.55-2.05,1.24-2.88c0.66-0.8,0.94-1.7,1.14-2.72
		c0.6-3.19,1.33-6.37,2.06-9.54c0.35-1.49,0.33-2.92,0.14-4.45c-0.34-2.74-0.78-5.42-1.84-7.99c-0.25-0.6-0.1-1.37-0.15-2.06
		c-0.14-1.72-0.52-3.33-1.85-4.6c-0.43-0.41-0.72-1.02-0.93-1.59c-0.77-2.03-2.55-3.55-2.91-5.79c-0.03-0.16-0.2-0.35-0.35-0.43
		c-1.54-0.84-2.31-2.43-3.53-3.58c-1.26-1.2-2.49-2.44-3.77-3.62c-0.59-0.54-1.23-1.05-1.94-1.4c-1.82-0.92-3.27-2.47-5.3-3.02
		c-0.17-0.05-0.31-0.22-0.43-0.35c-1-1.07-2.23-1.52-3.68-1.63c-2.08-0.17-4.06-0.64-5.88-1.8c-0.79-0.5-1.9-0.69-2.86-0.71
		c-3.64-0.08-7.29-0.09-10.93,0.02c-1.09,0.03-2.29,0.32-3.22,0.86c-1.52,0.88-3.04,1.36-4.79,1.44c-1.22,0.06-2.58,0.23-3.35,1.39
		c-0.56,0.83-1.3,1.01-2.2,1.21c-0.87,0.19-1.98,0.53-2.43,1.19c-1.14,1.65-3.06,2.36-4.26,3.88c-0.18,0.22-0.52,0.39-0.81,0.44
		c-1.41,0.24-2.3,1.29-2.74,2.38c-0.68,1.71-2.17,2.74-3.03,4.27c-0.2,0.36-0.57,0.72-0.94,0.88c-1.33,0.59-1.69,1.74-1.95,3.01
		c-0.12,0.59-0.25,1.35-0.66,1.67c-1.81,1.42-2.15,3.31-1.96,5.4c0.12,1.27-0.22,2.37-1.08,3.29c-0.86,0.93-1.21,2.02-1.21,3.27
		c0,1.07-0.09,2.13-0.09,3.2C522.08,315.61,522.09,321.58,522.09,327.55z M477.89,670.04c-0.29-5.9,0.45-13.07-0.36-20.22
		c-0.2-1.77-0.51-2.32-2.24-2.73c-0.6-0.14-1.24-0.16-1.87-0.16c-11.51-0.02-23.02-0.04-34.52-0.03c-1.19,0-2.41,0.05-3.55,0.35
		c-3.52,0.92-7.07,1.69-10.66,2.3c-1.08,0.18-2.09,0.79-3.12,1.22c-0.79,0.33-1.54,0.79-2.36,1.04c-0.92,0.29-1.79,0.58-2.34,1.44
		c-0.46,0.71-1.06,1.21-1.92,1.41c-0.35,0.08-0.71,0.27-0.99,0.5c-2.1,1.67-3.97,3.63-6.31,4.99c-0.4,0.23-0.62,0.77-0.9,1.18
		c-0.55,0.83-1.1,1.66-1.63,2.5c-0.37,0.58-0.69,1.19-1.06,1.77c-0.32,0.52-0.58,1.14-1.03,1.5c-1.11,0.9-1.58,2.02-1.74,3.41
		c-0.07,0.62-0.43,1.35-0.9,1.74c-1.29,1.07-1.76,2.4-1.68,4c0.11,2.36-0.55,4.6-1.2,6.81c-1.05,3.59-1.38,7.1-0.13,10.72
		c0.68,1.95,1.16,3.97,1.63,5.98c0.44,1.87,0.52,3.86,2.09,5.29c0.21,0.19,0.25,0.57,0.41,0.84c1.27,2.21,2.51,4.44,3.85,6.61
		c0.42,0.68,1.11,1.18,1.67,1.77c0.56,0.59,1.09,1.21,1.65,1.79c0.77,0.81,1.52,1.65,2.36,2.38c1.18,1.03,2.56,1.85,3.62,2.98
		c0.97,1.02,2.03,1.59,3.36,1.89c0.69,0.15,1.44,0.5,1.92,0.99c0.86,0.86,1.84,1.18,2.99,1.39c1.33,0.25,2.72,0.59,3.89,1.25
		c1.42,0.8,2.87,1.29,4.45,1.31c4.4,0.06,8.8,0.01,13.21,0.03c1.07,0,2.01-0.29,2.68-1.12c0.6-0.74,1.35-1.08,2.27-1.17
		c0.94-0.09,1.89-0.12,2.79-0.37c0.81-0.22,1.72-0.53,2.27-1.1c0.89-0.92,1.81-1.45,3.09-1.57c0.5-0.05,1.14-0.38,1.4-0.78
		c1.13-1.74,3.19-2.37,4.48-3.91c0.22-0.26,0.65-0.37,1-0.5c1.41-0.5,2.16-1.62,2.83-2.85c0.35-0.64,0.75-1.27,1.21-1.84
		c1.21-1.51,2.46-2.99,3.67-4.5c0.19-0.23,0.33-0.58,0.33-0.87c0-1.16,0.62-2.06,1.3-2.86c0.95-1.11,1.37-2.33,1.47-3.77
		c0.11-1.63,0.36-3.23,1.56-4.54c0.39-0.42,0.62-1.12,0.66-1.71c0.18-2.82,0.35-5.64,0.38-8.46
		C477.93,681.36,477.89,676.33,477.89,670.04z"/>
	<path id="SVGID_x5F_00000087404838741177315630000012906161343430313890_x5F_" class="st4" d="M131.5,500
		c0-203.51,164.98-368.5,368.5-368.5c203.51,0,368.5,164.98,368.5,368.5S703.51,868.5,500,868.5S131.5,703.51,131.5,500z"/>
	<text class="st5">	<textPath  xlink:href="#SVGID_x5F_00000087404838741177315630000012906161343430313890_x5F_" startOffset="100%">
<tspan  style="fill:#FF73A9; font-family:'Poppins-Light'; font-size:63.7964px; letter-spacing:300;">SVERIGES VÅRDGIVARE</tspan>	</textPath>
</text>
	<path id="SVGID_x5F_00000143591670932492474840000001741449132307395255_x5F_" class="st4" d="M867.82,485.97
		c7.75,203.37-150.42,381.99-353.94,381.99S131.9,717.54,131.9,514.03s150.42-381.99,353.94-381.99S859.81,275.67,867.82,485.97z"/>
	<text class="st5">	<textPath  xlink:href="#SVGID_x5F_00000143591670932492474840000001741449132307395255_x5F_" startOffset="100%">
<tspan  style="fill:#FF73A9; font-family:'Poppins-Light'; font-size:63.7964px; letter-spacing:300;">SVERIGES VÅRDGIVARE</tspan>	</textPath>
</text>
	<circle class="st9" cx="500" cy="500" r="436.04"/>
	<circle class="st10" cx="500" cy="500" r="455.83"/>
</g>
<g id="LED_BLÅ" class="st0">
	<circle class="st11" cx="500" cy="500" r="314.65"/>
	<path id="Symbol_00000118376792756334025800000009696280896219755707_" class="st3" d="M611.84,479.1
		c22.08,0,44.15-0.01,66.23,0.01c5.91,0,11.82,0.07,17.73,0.15c1.19,0.02,2.37,0.25,3.55,0.41c1.36,0.18,2.72,0.37,4.08,0.61
		c0.6,0.11,1.19,0.34,1.78,0.52c1.13,0.34,2.26,0.69,3.39,1.04c1.07,0.33,2.22,0.5,3.19,1.01c1.6,0.84,3.22,1.37,5.03,1.31
		c1.69-0.06,3.21,0.17,4.25,1.83c0.33,0.53,1.24,0.88,1.93,0.97c1.13,0.16,1.97,0.69,2.81,1.39c0.66,0.55,1.45,0.96,2.21,1.39
		c0.65,0.37,1.33,0.67,1.98,1.02c0.33,0.18,0.62,0.51,0.97,0.58c2.35,0.47,4,2.18,5.97,3.32c0.16,0.09,0.38,0.16,0.47,0.31
		c0.68,1.19,1.93,1.72,2.91,2.55c2.14,1.82,4.07,3.88,6.07,5.86c1.92,1.89,3.83,3.79,5.71,5.73c0.56,0.58,1,1.27,1.49,1.91
		c0.3,0.39,0.55,0.86,0.92,1.17c0.77,0.66,1.21,1.6,1.84,2.27c1.29,1.38,1.91,3.04,2.78,4.6c0.24,0.43,0.7,0.72,0.96,1.14
		c0.35,0.57,0.61,1.19,0.89,1.8c0.05,0.11-0.01,0.28,0.06,0.37c1.81,2.37,2.07,5.6,4.35,7.7c0.63,0.58,0.96,1.29,0.79,2.2
		c-0.4,2.21,0.28,4.18,1.3,6.12c0.54,1.03,0.97,2.2,1.12,3.35c0.17,1.34,0.5,2.58,1.15,3.75c0.44,0.79,0.63,1.57,0.52,2.51
		c-0.08,0.7,0.3,1.44,0.43,2.16c0.2,1.09,0.46,2.19,0.52,3.29c0.14,2.69,0.19,5.39,0.27,8.09c0.01,0.38,0.06,0.75,0.04,1.13
		c-0.1,1.62-0.24,3.24-0.32,4.87c-0.15,3.19-0.2,6.39-0.42,9.58c-0.07,1.03-0.46,2.09-0.91,3.03c-0.78,1.61-1.38,3.23-1.28,5.05
		c0.07,1.32-0.36,2.4-1.3,3.4c-0.55,0.59-0.79,1.53-1,2.35c-0.21,0.84-0.22,1.74-0.31,2.62c-0.03,0.25,0.02,0.56-0.11,0.74
		c-1.53,2.12-2.09,4.78-3.74,6.82c-0.65,0.8-1.26,1.57-1.14,2.68c0.09,0.84-0.32,1.41-0.91,1.96c-0.5,0.46-1.09,0.95-1.31,1.55
		c-0.59,1.62-1.38,3.08-2.56,4.33c-0.63,0.67-1.25,1.36-1.86,2.05c-0.79,0.88-1.64,1.71-2.36,2.65c-2.27,2.94-5,5.39-7.71,7.9
		c-0.95,0.88-1.74,1.91-2.81,2.71c-2.6,1.94-5.08,4.04-7.64,6.05c-0.49,0.38-1.09,0.86-1.64,0.87c-1.54,0.03-2.55,0.88-3.59,1.81
		c-0.32,0.29-0.76,0.44-1.15,0.63c-0.45,0.22-0.99,0.31-1.37,0.62c-1.69,1.39-3.6,2.22-5.77,2.46c-0.18,0.02-0.38,0.11-0.5,0.24
		c-1.48,1.59-3.37,1.98-5.46,2.1c-1.44,0.08-2.79,0.59-3.88,1.69c-0.44,0.44-1.27,0.8-1.86,0.73c-2.37-0.3-4.59,0.6-6.9,0.69
		c-0.5,0.02-1,0.18-1.5,0.14c-1.5-0.12-2.83,0.37-4.19,0.91c-0.91,0.36-1.92,0.53-2.9,0.65c-0.87,0.11-1.76,0.02-2.64,0.02
		c-53.33-0.01-106.66-0.03-160-0.02c-2.13,0-4.26,0.19-6.39,0.35c-1.51,0.11-1.91,0.39-2.15,1.88c-0.28,1.79-0.46,3.62-0.46,5.43
		c0.05,11.13,0.17,22.26,0.27,33.39c0.02,2.15-0.15,4.22-1.33,6.16c-0.45,0.75-0.51,1.8-0.56,2.72c-0.17,3.14-0.24,6.28-0.37,9.41
		c-0.05,1.36-0.49,2.53-1.4,3.61c-0.48,0.57-0.75,1.44-0.84,2.2c-0.25,2.07-0.43,4.08-1.96,5.75c-0.49,0.53-0.56,1.5-0.72,2.28
		c-0.18,0.86-0.18,1.75-0.37,2.61c-0.12,0.52-0.34,1.15-0.72,1.46c-0.98,0.81-1.56,1.78-1.79,3c-0.02,0.12-0.04,0.27-0.12,0.35
		c-1.49,1.59-2,3.83-3.64,5.34c-0.59,0.55-0.81,1.5-1.21,2.26c-0.4,0.76-0.68,1.62-1.23,2.25c-1.9,2.16-3.89,4.24-5.84,6.35
		c-0.09,0.09-0.22,0.18-0.24,0.29c-0.4,1.9-1.92,2.99-3.1,4.33c-0.29,0.33-0.55,0.86-0.9,0.93c-2.11,0.44-3.17,2.38-4.9,3.35
		c-0.22,0.12-0.43,0.27-0.61,0.45c-1.29,1.25-2.58,2.5-3.86,3.75c-0.13,0.13-0.26,0.35-0.41,0.38c-2.18,0.42-3.44,2.47-5.51,3.09
		c-0.12,0.04-0.24,0.09-0.34,0.16c-1.8,1.25-3.62,2.44-5.82,2.89c-0.32,0.07-0.55,0.5-0.87,0.69c-0.64,0.37-1.27,0.79-1.96,1
		c-1.68,0.51-3.38,0.82-4.74,2.13c-0.76,0.73-1.82,1.01-2.99,0.7c-1.45-0.38-2.78,0.19-3.8,1.17c-1.1,1.06-2.3,1.36-3.76,1.31
		c-2.57-0.09-5.16-0.2-7.67,0.6c-0.35,0.11-0.75,0.16-1.12,0.14c-1.93-0.14-3.74,0.31-5.49,1.07c-0.4,0.17-0.84,0.35-1.26,0.35
		c-3.18-0.02-6.39,0.43-9.49-0.86c-1.31-0.54-2.79-0.74-4.22-0.87c-2.69-0.24-5.39-0.36-8.09-0.44c-1.13-0.04-2.11-0.34-2.92-1.1
		c-0.83-0.77-1.8-1.06-2.9-1.2c-2.24-0.29-4.44-0.58-6.41-1.94c-0.93-0.64-2.25-0.72-3.37-1.11c-0.58-0.2-1.13-0.5-1.65-0.83
		c-1.22-0.75-2.38-1.6-3.62-2.3c-2.27-1.28-4.5-2.67-6.89-3.67c-3.44-1.44-5.3-4.64-8.09-6.79c-1.09-0.84-2.2-1.66-3.18-2.62
		c-2.01-1.98-4.14-3.88-5.82-6.12c-1.65-2.2-3.64-4.07-5.34-6.2c-0.27-0.34-0.41-0.77-0.64-1.15c-0.55-0.9-1.12-1.79-1.65-2.7
		c-0.34-0.59-0.78-1.18-0.92-1.82c-0.27-1.33-0.73-2.52-1.7-3.48c-0.22-0.22-0.52-0.46-0.57-0.74c-0.4-2.15-1.64-3.85-2.7-5.68
		c-0.53-0.92-0.44-2.19-0.74-3.28c-0.21-0.77-0.63-1.48-0.91-2.24c-0.46-1.28-1.05-2.55-1.29-3.88c-0.26-1.44-0.47-2.84-1.4-4.03
		c-0.81-1.04-0.99-2.29-1.03-3.56c-0.09-3.08-0.17-6.16-0.27-9.23c-0.03-0.75-0.06-1.51-0.22-2.24c-0.29-1.29-0.32-2.53-0.21-3.88
		c0.37-4.69,0.54-9.4,0.68-14.11c0.05-1.8,0.22-3.47,1.3-5c0.8-1.14,1.09-2.48,1.15-3.92c0.08-1.8,0.24-3.63,1.84-4.95
		c0.76-0.63,0.83-1.67,0.73-2.64c-0.18-1.77-0.09-3.42,1.7-4.43c0.1-0.06,0.22-0.18,0.24-0.29c0.42-2.22,2.21-3.71,3.03-5.72
		c0.39-0.96,1.08-1.8,1.61-2.72c0.33-0.58,0.76-1.16,0.89-1.79c0.2-0.92,0.68-1.56,1.33-2.2c0.7-0.69,1.27-1.52,1.87-2.31
		c1-1.34,1.95-2.73,2.98-4.05c1.34-1.71,2.72-3.39,4.11-5.06c0.27-0.33,0.65-0.58,0.99-0.84c0.35-0.26,0.75-0.47,1.08-0.75
		c1.75-1.49,3.49-2.99,5.22-4.51c0.37-0.33,0.63-0.78,0.99-1.13c0.35-0.34,0.7-0.83,1.12-0.91c1.14-0.23,1.87-0.94,2.62-1.73
		c0.42-0.44,0.99-0.73,1.5-1.08c0.88-0.58,1.76-1.15,2.64-1.73c0.1-0.07,0.18-0.21,0.29-0.24c2.57-0.51,4.53-2.34,6.92-3.22
		c0.76-0.28,1.64-0.47,2.22-0.97c1.25-1.07,2.69-1.54,4.23-1.92c0.84-0.21,1.65-0.59,2.4-1.02c1.23-0.71,2.49-1.15,3.93-1.08
		c2.12,0.1,4.03-0.32,5.8-1.72c0.84-0.66,2.23-0.88,3.37-0.87c4.41,0.04,8.79-0.2,13.16-0.71c1.56-0.18,3.14-0.14,4.71-0.14
		c10.31-0.01,20.63,0.01,30.94,0c1.13,0,2.26-0.1,3.38-0.22c1.9-0.21,2.94-1.2,3.14-3.09c0.12-1.12,0.11-2.26,0.11-3.39
		c0-21.82,0-43.65,0.01-65.47c0-2.07,0.16-4.14,0.21-6.21c0.1-3.94-1.28-5.26-5.17-5.07c-2.38,0.12-4.77,0.21-7.16,0.21
		c-50.31,0.01-100.63,0.03-150.94-0.02c-4.51,0-9.02-0.44-13.53-0.68c-0.44-0.02-0.88-0.06-1.32-0.03c-2.04,0.13-3.9-0.24-5.8-1.17
		c-1.46-0.72-3.28-0.7-4.91-1.09c-0.83-0.2-1.75-0.41-2.37-0.93c-1.02-0.85-2.12-1.3-3.4-1.44c-0.75-0.08-1.51-0.13-2.24-0.29
		c-0.85-0.18-1.8-0.3-2.48-0.76c-1.09-0.75-2.44-1.14-3.4-1.89c-1.76-1.39-3.59-2.39-5.75-2.9c-0.32-0.08-0.52-0.55-0.83-0.74
		c-0.74-0.44-1.47-1.01-2.28-1.17c-1.13-0.21-1.88-0.74-2.66-1.55c-1.47-1.52-3.16-2.82-4.74-4.24c-1.39-1.26-2.63-2.73-4.16-3.78
		c-2.86-1.95-4.61-4.92-7.09-7.22c-0.49-0.46-0.84-1.09-1.19-1.68c-0.52-0.86-1.09-1.56-1.99-2.16c-1.22-0.82-2.68-1.9-3.07-3.17
		c-0.61-2-1.72-3.56-2.82-5.21c-0.13-0.19-0.09-0.5-0.19-0.72c-0.42-0.96-0.74-1.99-1.33-2.84c-0.65-0.94-1.25-1.8-1.4-3.01
		c-0.09-0.74-0.64-1.47-1.14-2.09c-0.66-0.81-1.05-1.63-1.16-2.7c-0.16-1.62-0.66-3.11-1.49-4.59c-0.8-1.42-1.15-3.19-1.33-4.85
		c-0.17-1.55-0.69-2.91-1.24-4.31c-0.35-0.91-0.64-1.9-0.71-2.87c-0.3-4.07-0.53-8.14-0.72-12.21c-0.05-1.06,0.2-2.12,0.22-3.18
		c0.04-2.77,0.01-5.53,0.06-8.3c0.01-0.87,0.07-1.77,0.31-2.6c0.33-1.14,0.89-2.21,0.55-3.47c-0.07-0.27,0.04-0.65,0.19-0.9
		c0.93-1.54,1.21-3.25,1.54-4.98c0.22-1.13,0.8-2.23,1.36-3.26c0.91-1.66,1.08-3.47,1.2-5.27c0.08-1.26,0.56-2.27,1.31-3.25
		c0.47-0.62,0.88-1.39,1.03-2.14c0.16-0.86,0.45-1.56,1.15-2.06c0.92-0.67,1.27-1.64,1.64-2.67c0.28-0.79,0.85-1.48,1.31-2.21
		c0.1-0.15,0.35-0.24,0.4-0.39c0.69-2.19,2.06-3.97,3.53-5.65c1.38-1.58,2.02-3.67,3.79-5c1.13-0.85,1.91-2.14,2.93-3.15
		c1.55-1.53,3.19-2.98,4.77-4.48c0.81-0.77,1.55-1.62,2.39-2.36c1.49-1.31,2.91-2.77,4.58-3.79c2.01-1.22,3.39-3.44,5.96-3.77
		c0.28-0.04,0.61-0.25,0.78-0.48c0.85-1.13,1.97-1.67,3.35-1.89c0.66-0.11,1.42-0.39,1.86-0.85c1.21-1.3,2.83-1.52,4.37-2
		c0.69-0.21,1.39-0.57,1.95-1.03c1.02-0.84,2.13-1.33,3.45-1.29c1.82,0.06,3.45-0.41,4.95-1.48c0.59-0.42,1.37-0.65,2.1-0.76
		c2.84-0.42,5.65-1.12,8.58-0.92c0.57,0.04,1.26-0.24,1.74-0.59c1.24-0.91,2.6-1.08,4.09-1.08c42.39,0,84.78-0.03,127.17-0.05
		c13.14-0.01,26.29,0.02,39.43,0c1.12,0,2.25-0.17,3.37-0.28c0.93-0.09,1.51-0.64,1.68-1.53c0.27-1.41,0.66-2.83,0.66-4.25
		c0.04-10.82,0.02-21.63-0.02-32.45c-0.01-1.78,0.1-3.5,0.74-5.18c0.92-2.43,1.23-4.97,1.21-7.58c-0.02-2.7,0.17-5.4,0.31-8.1
		c0.07-1.28,0.4-2.49,1.37-3.42c0.93-0.89,1.26-1.99,1.22-3.25c-0.02-0.69,0.02-1.38,0-2.08c-0.03-0.88,0.24-1.64,0.96-2.14
		c1.29-0.89,1.6-2.21,1.66-3.63c0.06-1.3,0.25-2.48,1.44-3.3c0.33-0.22,0.53-0.7,0.67-1.1c0.47-1.3,0.76-2.68,2.06-3.49
		c0.14-0.09,0.29-0.3,0.3-0.46c0.15-1.89,1.34-3.16,2.49-4.51c0.37-0.43,0.38-1.16,0.59-1.74c0.19-0.52,0.33-1.09,0.66-1.51
		c0.65-0.82,1.42-1.55,2.14-2.32c1.32-1.41,2.65-2.81,3.97-4.22c0.13-0.14,0.31-0.25,0.38-0.41c0.71-1.61,1.65-2.98,3.03-4.16
		c0.75-0.64,1.28-1.48,2.32-1.74c0.3-0.07,0.61-0.22,0.83-0.43c1.48-1.33,2.96-2.65,4.4-4.02c1.04-0.99,2.01-2.04,3.02-3.05
		c0.09-0.09,0.2-0.2,0.31-0.21c2.05-0.2,3.36-1.85,5.11-2.64c0.95-0.43,1.8-1.1,2.7-1.65c0.32-0.2,0.63-0.46,0.98-0.54
		c1.61-0.37,3.08-0.93,4.31-2.15c0.48-0.48,1.35-0.66,2.07-0.81c1.43-0.3,2.72-0.84,4.02-1.52c1.2-0.62,2.61-0.82,3.92-1.24
		c1.13-0.36,2.35-0.57,3.34-1.17c2.05-1.24,4.33-1.31,6.54-1.42c3.95-0.2,7.88-0.37,11.68-1.63c1.64-0.54,3.33-0.44,5.03-0.09
		c1.16,0.24,2.35,0.31,3.53,0.44c0.25,0.03,0.52-0.02,0.75,0.07c2.93,1.16,6.04,1.03,9.09,1.34c0.37,0.04,0.75,0.11,1.13,0.09
		c2.08-0.13,3.95,0.35,5.72,1.51c0.75,0.49,1.74,0.66,2.65,0.85c1.65,0.34,3.33,0.52,4.76,1.61c1.42,1.08,3.22,0.96,4.87,1.27
		c1.03,0.19,1.96,0.42,2.55,1.38c0.06,0.11,0.15,0.25,0.25,0.28c2.35,0.56,4.02,2.41,6.22,3.26c0.73,0.28,1.37,0.79,2.01,1.26
		c0.45,0.33,0.76,0.95,1.25,1.1c1.59,0.49,2.82,1.49,4.08,2.49c0.24,0.19,0.55,0.31,0.78,0.52c3.37,3.07,6.76,6.11,10.07,9.24
		c0.9,0.85,1.55,1.97,2.35,2.93c0.59,0.7,1.17,1.47,1.91,1.99c1.92,1.36,2.19,3.85,3.92,5.38c1.09,0.96,2.12,2.29,2.54,3.65
		c0.64,2.09,1.76,3.83,2.96,5.57c0.16,0.24,0.18,0.6,0.21,0.91c0.1,1.13,0.58,2.08,1.46,2.76c0.94,0.73,1.22,1.63,1.23,2.79
		c0,1.72,0.36,3.37,1.62,4.69c0.74,0.78,0.99,1.72,0.95,2.77c-0.07,1.74,0.27,3.29,1.34,4.78c0.61,0.85,0.83,2.1,0.9,3.19
		c0.22,3.51,0.27,7.03,0.44,10.55c0.04,0.81,0.19,1.63,0.44,2.4c0.44,1.37,0.32,2.7,0.03,4.08c-0.25,1.22-0.37,2.48-0.42,3.73
		c-0.16,3.95-0.27,7.91-0.36,11.86c-0.02,1.07-0.34,2-1.11,2.71c-0.96,0.89-1.32,1.98-1.23,3.23c0.14,1.92-0.28,3.58-1.69,4.99
		c-0.85,0.86-0.94,2.04-0.91,3.18c0.05,1.58-0.28,2.9-1.57,4.03c-0.63,0.55-0.97,1.62-1.09,2.5c-0.13,0.96-0.44,1.68-1.17,2.24
		c-0.78,0.6-1.24,1.4-1.45,2.36c-0.05,0.25-0.05,0.53-0.18,0.73c-1.08,1.66-2.12,3.35-3.29,4.94c-1.4,1.91-2.92,3.73-4.4,5.59
		c-1.12,1.41-2.18,2.87-3.38,4.22c-1.19,1.34-2.51,2.56-3.79,3.83c-0.27,0.26-0.54,0.54-0.86,0.73c-2,1.18-3.48,2.97-5.24,4.41
		c-1.55,1.27-3.12,2.89-4.96,3.51c-2.37,0.8-4.24,2.36-6.45,3.38c-1.49,0.68-2.87,1.69-4.46,2.26c-0.17,0.06-0.38,0.16-0.47,0.3
		c-1.04,1.6-2.59,1.91-4.38,2.02c-0.91,0.06-1.82,0.73-2.65,1.24c-1.2,0.73-2.34,1.15-3.85,1.08c-2.41-0.1-4.88,0.03-6.93,1.75
		c-0.98,0.82-2.13,1.29-3.5,0.86c-0.52-0.16-1.13-0.13-1.69-0.09c-4.13,0.29-8.26,0.63-12.4,0.9c-1.75,0.11-3.52,0.14-5.27,0.12
		c-5.22-0.04-10.44-0.16-15.65-0.16c-5.15,0-10.31,0.11-15.46,0.18c-0.5,0.01-1.01,0.02-1.5,0.09c-1.63,0.24-2.2,0.73-2.46,2.37
		c-0.2,1.3-0.29,2.62-0.29,3.94c0,2.13,0.18,4.27,0.18,6.4c0.02,21.26,0,42.51,0.02,63.77c0,1.25,0.13,2.51,0.34,3.74
		c0.35,1.99,0.8,2.4,2.83,2.62c1.62,0.18,3.25,0.33,4.88,0.33c27.36,0.02,54.72,0.01,82.07,0.01
		C611.84,479.16,611.84,479.13,611.84,479.1z M389.72,397.41c-24.58,0-49.17,0-73.75,0c-3.71,0-7.42,0-11.13,0.13
		c-1.09,0.04-2.42,0.21-3.19,0.86c-1.47,1.24-3.07,1.59-4.85,1.7c-1.34,0.09-2.6,0.36-3.41,1.65c-0.24,0.39-0.76,0.81-1.19,0.84
		c-2.61,0.2-3.86,2.43-5.65,3.8c-1.67,1.28-3.01,2.98-4.5,4.49c-0.7,0.71-1.31,1.56-2.13,2.1c-1.1,0.73-1.64,1.65-1.81,2.91
		c-0.11,0.79-0.17,1.66-0.98,2.15c-1.13,0.69-1.53,1.83-1.72,3.01c-0.18,1.09-0.53,2.02-1.25,2.88c-0.83,0.99-1.1,2.19-1.19,3.49
		c-0.2,3.07-0.44,6.13-0.8,9.18c-0.15,1.21-0.18,2.35,0.04,3.54c0.25,1.35,0.51,2.74,0.46,4.1c-0.16,4.15,2.16,7.51,3.39,11.22
		c0.09,0.28,0.4,0.47,0.58,0.73c0.51,0.77,1.01,1.56,1.5,2.34c0.43,0.69,0.86,1.38,1.24,2.1c1.19,2.21,3.36,3.53,4.95,5.37
		c0.82,0.94,1.6,1.99,2.61,2.68c3.12,2.11,5.74,5.12,9.79,5.63c0.29,0.04,0.6,0.22,0.84,0.4c2.02,1.47,4.29,2.02,6.75,1.92
		c0.37-0.02,0.75,0.08,1.12,0.12c3.56,0.32,7.11,0.9,10.67,0.9c41.06,0.06,82.12,0.04,123.17,0.04c11.57,0,23.14,0.01,34.71,0.01
		c2.6,0,3.73-0.97,3.85-3.54c0.1-2.07,0.01-4.14,0.01-6.21c0-21.94,0-43.89,0-65.83c0-4.23-0.49-4.71-4.79-4.71
		C445.31,397.41,417.51,397.41,389.72,397.41z M610.39,602.66c23.26,0,46.53,0.01,69.79,0c5.03,0,10.06-0.06,15.09-0.08
		c1.09,0,2.23,0,3.02-0.81c1.44-1.5,3.26-1.77,5.16-1.83c1.21-0.04,2.16-0.44,2.94-1.4c0.41-0.5,1.02-1.05,1.61-1.15
		c2.29-0.37,3.52-2.31,5.23-3.48c1.61-1.1,2.83-2.79,4.2-4.25c0.93-1,1.75-2.11,2.75-3.04c0.82-0.76,1.34-1.59,1.64-2.66
		c0.21-0.75,0.59-1.58,1.16-2.06c1.05-0.89,1.51-2.03,1.65-3.27c0.1-0.94,0.44-1.65,1.02-2.35c0.82-0.99,1.2-2.14,1.3-3.45
		c0.27-3.49,0.65-6.97,0.98-10.46c0.04-0.43,0.1-0.89,0.01-1.31c-0.71-3.14-0.81-6.34-1.07-9.53c-0.07-0.86-0.56-1.78-1.1-2.49
		c-0.57-0.77-0.95-1.56-1.33-2.43c-1.04-2.38-2.24-4.68-3.39-7.01c-0.05-0.11-0.15-0.2-0.25-0.28c-3-2.63-5.27-6.02-8.7-8.2
		c-0.26-0.16-0.51-0.41-0.63-0.69c-0.49-1.06-1.41-1.54-2.43-1.95c-0.46-0.19-0.96-0.42-1.26-0.78c-0.91-1.11-2.12-1.5-3.46-1.72
		c-1.19-0.2-2.23-0.61-3.15-1.53c-0.55-0.55-1.54-0.79-2.36-0.9c-1.49-0.19-3.01-0.14-4.51-0.27c-4.19-0.35-8.33-1.12-12.57-0.95
		c-3.83,0.15-7.67,0.08-11.51,0.08c-47.41-0.03-94.82-0.06-142.23-0.1c-0.75,0-1.51-0.05-2.25-0.13c-1.94-0.22-3.3,0.78-3.53,2.74
		c-0.14,1.18-0.15,2.38-0.16,3.58c-0.01,8.17,0,16.35,0,24.52c0,14.27,0.01,28.55,0.02,42.82c0,1.45,0,2.9,0.1,4.34
		c0.1,1.52,1.03,2.38,2.55,2.47c0.56,0.04,1.13,0.01,1.7,0.01C554.43,602.66,582.41,602.66,610.39,602.66z M522.09,327.55
		C522.09,327.55,522.09,327.55,522.09,327.55c0.01,6.47-0.01,12.95,0.02,19.42c0.01,1.31,0.16,2.63,0.36,3.93
		c0.2,1.3,0.96,1.96,2.25,2.14c0.43,0.06,0.88,0.04,1.32,0.04c11.88,0,23.76,0.02,35.64-0.03c1.36-0.01,2.74-0.28,4.07-0.62
		c3.16-0.82,6.31-1.68,9.62-1.66c1.04,0.01,2-0.27,2.7-1.11c0.68-0.83,1.56-1.17,2.58-1.41c0.71-0.17,1.54-0.46,1.98-0.98
		c1.52-1.82,3.87-2.48,5.48-4.15c0.99-1.02,2.18-1.85,3.24-2.82c1.15-1.06,2.29-2.14,3.33-3.3c0.52-0.58,1.04-1.32,1.19-2.06
		c0.2-1.01,0.64-1.74,1.41-2.33c0.85-0.66,1.28-1.59,1.33-2.6c0.06-1.15,0.55-2.05,1.24-2.88c0.66-0.8,0.94-1.7,1.14-2.72
		c0.6-3.19,1.33-6.37,2.06-9.54c0.35-1.49,0.33-2.92,0.14-4.45c-0.34-2.74-0.78-5.42-1.84-7.99c-0.25-0.6-0.1-1.37-0.15-2.06
		c-0.14-1.72-0.52-3.33-1.85-4.6c-0.43-0.41-0.72-1.02-0.93-1.59c-0.77-2.03-2.55-3.55-2.91-5.79c-0.03-0.16-0.2-0.35-0.35-0.43
		c-1.54-0.84-2.31-2.43-3.53-3.58c-1.26-1.2-2.49-2.44-3.77-3.62c-0.59-0.54-1.23-1.05-1.94-1.4c-1.82-0.92-3.27-2.47-5.3-3.02
		c-0.17-0.05-0.31-0.22-0.43-0.35c-1-1.07-2.23-1.52-3.68-1.63c-2.08-0.17-4.06-0.64-5.88-1.8c-0.79-0.5-1.9-0.69-2.86-0.71
		c-3.64-0.08-7.29-0.09-10.93,0.02c-1.09,0.03-2.29,0.32-3.22,0.86c-1.52,0.88-3.04,1.36-4.79,1.44c-1.22,0.06-2.58,0.23-3.35,1.39
		c-0.56,0.83-1.3,1.01-2.2,1.21c-0.87,0.19-1.98,0.53-2.43,1.19c-1.14,1.65-3.06,2.36-4.26,3.88c-0.18,0.22-0.52,0.39-0.81,0.44
		c-1.41,0.24-2.3,1.29-2.74,2.38c-0.68,1.71-2.17,2.74-3.03,4.27c-0.2,0.36-0.57,0.72-0.94,0.88c-1.33,0.59-1.69,1.74-1.95,3.01
		c-0.12,0.59-0.25,1.35-0.66,1.67c-1.81,1.42-2.15,3.31-1.96,5.4c0.12,1.27-0.22,2.37-1.08,3.29c-0.86,0.93-1.21,2.02-1.21,3.27
		c0,1.07-0.09,2.13-0.09,3.2C522.08,315.61,522.09,321.58,522.09,327.55z M477.89,670.04c-0.29-5.9,0.45-13.07-0.36-20.22
		c-0.2-1.77-0.51-2.32-2.24-2.73c-0.6-0.14-1.24-0.16-1.87-0.16c-11.51-0.02-23.02-0.04-34.52-0.03c-1.19,0-2.41,0.05-3.55,0.35
		c-3.52,0.92-7.07,1.69-10.66,2.3c-1.08,0.18-2.09,0.79-3.12,1.22c-0.79,0.33-1.54,0.79-2.36,1.04c-0.92,0.29-1.79,0.58-2.34,1.44
		c-0.46,0.71-1.06,1.21-1.92,1.41c-0.35,0.08-0.71,0.27-0.99,0.5c-2.1,1.67-3.97,3.63-6.31,4.99c-0.4,0.23-0.62,0.77-0.9,1.18
		c-0.55,0.83-1.1,1.66-1.63,2.5c-0.37,0.58-0.69,1.19-1.06,1.77c-0.32,0.52-0.58,1.14-1.03,1.5c-1.11,0.9-1.58,2.02-1.74,3.41
		c-0.07,0.62-0.43,1.35-0.9,1.74c-1.29,1.07-1.76,2.4-1.68,4c0.11,2.36-0.55,4.6-1.2,6.81c-1.05,3.59-1.38,7.1-0.13,10.72
		c0.68,1.95,1.16,3.97,1.63,5.98c0.44,1.87,0.52,3.86,2.09,5.29c0.21,0.19,0.25,0.57,0.41,0.84c1.27,2.21,2.51,4.44,3.85,6.61
		c0.42,0.68,1.11,1.18,1.67,1.77c0.56,0.59,1.09,1.21,1.65,1.79c0.77,0.81,1.52,1.65,2.36,2.38c1.18,1.03,2.56,1.85,3.62,2.98
		c0.97,1.02,2.03,1.59,3.36,1.89c0.69,0.15,1.44,0.5,1.92,0.99c0.86,0.86,1.84,1.18,2.99,1.39c1.33,0.25,2.72,0.59,3.89,1.25
		c1.42,0.8,2.87,1.29,4.45,1.31c4.4,0.06,8.8,0.01,13.21,0.03c1.07,0,2.01-0.29,2.68-1.12c0.6-0.74,1.35-1.08,2.27-1.17
		c0.94-0.09,1.89-0.12,2.79-0.37c0.81-0.22,1.72-0.53,2.27-1.1c0.89-0.92,1.81-1.45,3.09-1.57c0.5-0.05,1.14-0.38,1.4-0.78
		c1.13-1.74,3.19-2.37,4.48-3.91c0.22-0.26,0.65-0.37,1-0.5c1.41-0.5,2.16-1.62,2.83-2.85c0.35-0.64,0.75-1.27,1.21-1.84
		c1.21-1.51,2.46-2.99,3.67-4.5c0.19-0.23,0.33-0.58,0.33-0.87c0-1.16,0.62-2.06,1.3-2.86c0.95-1.11,1.37-2.33,1.47-3.77
		c0.11-1.63,0.36-3.23,1.56-4.54c0.39-0.42,0.62-1.12,0.66-1.71c0.18-2.82,0.35-5.64,0.38-8.46
		C477.93,681.36,477.89,676.33,477.89,670.04z"/>
	<path id="SVGID_x5F_00000151541032401179767570000010676532778723819417_x5F_" class="st4" d="M131.5,500
		c0-203.51,164.98-368.5,368.5-368.5c203.51,0,368.5,164.98,368.5,368.5S703.51,868.5,500,868.5S131.5,703.51,131.5,500z"/>
	<text class="st5">	<textPath  xlink:href="#SVGID_x5F_00000151541032401179767570000010676532778723819417_x5F_" startOffset="100%">
<tspan  style="fill:#00FFFF; font-family:'Poppins-Light'; font-size:63.7964px; letter-spacing:300;">SVERIGES VÅRDGIVARE</tspan>	</textPath>
</text>
	<path id="SVGID_x5F_00000100370931005522210800000012608925492966844833_x5F_" class="st4" d="M867.82,485.97
		c7.75,203.37-150.42,381.99-353.94,381.99S131.9,717.54,131.9,514.03s150.42-381.99,353.94-381.99S859.81,275.67,867.82,485.97z"/>
	<text class="st5">	<textPath  xlink:href="#SVGID_x5F_00000100370931005522210800000012608925492966844833_x5F_" startOffset="100%">
<tspan  style="fill:#00FFFF; font-family:'Poppins-Light'; font-size:63.7964px; letter-spacing:300;">SVERIGES VÅRDGIVARE</tspan>	</textPath>
</text>
	<circle class="st12" cx="500" cy="500" r="436.04"/>
	<circle class="st13" cx="500" cy="500" r="455.83"/>
</g>
<g id="ANNAN_BLÅ">
	<circle class="st14" cx="500" cy="500" r="314.65"/>
	<path id="Symbol_00000168835568621861558000000003585431654289627781_" class="st15" d="M611.84,479.1
		c22.08,0,44.15-0.01,66.23,0.01c5.91,0,11.82,0.07,17.73,0.15c1.19,0.02,2.37,0.25,3.55,0.41c1.36,0.18,2.72,0.37,4.08,0.61
		c0.6,0.11,1.19,0.34,1.78,0.52c1.13,0.34,2.26,0.69,3.39,1.04c1.07,0.33,2.22,0.5,3.19,1.01c1.6,0.84,3.22,1.37,5.03,1.31
		c1.69-0.06,3.21,0.17,4.25,1.83c0.33,0.53,1.24,0.88,1.93,0.97c1.13,0.16,1.97,0.69,2.81,1.39c0.66,0.55,1.45,0.96,2.21,1.39
		c0.65,0.37,1.33,0.67,1.98,1.02c0.33,0.18,0.62,0.51,0.97,0.58c2.35,0.47,4,2.18,5.97,3.32c0.16,0.09,0.38,0.16,0.47,0.31
		c0.68,1.19,1.93,1.72,2.91,2.55c2.14,1.82,4.07,3.88,6.07,5.86c1.92,1.89,3.83,3.79,5.71,5.73c0.56,0.58,1,1.27,1.49,1.91
		c0.3,0.39,0.55,0.86,0.92,1.17c0.77,0.66,1.21,1.6,1.84,2.27c1.29,1.38,1.91,3.04,2.78,4.6c0.24,0.43,0.7,0.72,0.96,1.14
		c0.35,0.57,0.61,1.19,0.89,1.8c0.05,0.11-0.01,0.28,0.06,0.37c1.81,2.37,2.07,5.6,4.35,7.7c0.63,0.58,0.96,1.29,0.79,2.2
		c-0.4,2.21,0.28,4.18,1.3,6.12c0.54,1.03,0.97,2.2,1.12,3.35c0.17,1.34,0.5,2.58,1.15,3.75c0.44,0.79,0.63,1.57,0.52,2.51
		c-0.08,0.7,0.3,1.44,0.43,2.16c0.2,1.09,0.46,2.19,0.52,3.29c0.14,2.69,0.19,5.39,0.27,8.09c0.01,0.38,0.06,0.75,0.04,1.13
		c-0.1,1.62-0.24,3.24-0.32,4.87c-0.15,3.19-0.2,6.39-0.42,9.58c-0.07,1.03-0.46,2.09-0.91,3.03c-0.78,1.61-1.38,3.23-1.28,5.05
		c0.07,1.32-0.36,2.4-1.3,3.4c-0.55,0.59-0.79,1.53-1,2.35c-0.21,0.84-0.22,1.74-0.31,2.62c-0.03,0.25,0.02,0.56-0.11,0.74
		c-1.53,2.12-2.09,4.78-3.74,6.82c-0.65,0.8-1.26,1.57-1.14,2.68c0.09,0.84-0.32,1.41-0.91,1.96c-0.5,0.46-1.09,0.95-1.31,1.55
		c-0.59,1.62-1.38,3.08-2.56,4.33c-0.63,0.67-1.25,1.36-1.86,2.05c-0.79,0.88-1.64,1.71-2.36,2.65c-2.27,2.94-5,5.39-7.71,7.9
		c-0.95,0.88-1.74,1.91-2.81,2.71c-2.6,1.94-5.08,4.04-7.64,6.05c-0.49,0.38-1.09,0.86-1.64,0.87c-1.54,0.03-2.55,0.88-3.59,1.81
		c-0.32,0.29-0.76,0.44-1.15,0.63c-0.45,0.22-0.99,0.31-1.37,0.62c-1.69,1.39-3.6,2.22-5.77,2.46c-0.18,0.02-0.38,0.11-0.5,0.24
		c-1.48,1.59-3.37,1.98-5.46,2.1c-1.44,0.08-2.79,0.59-3.88,1.69c-0.44,0.44-1.27,0.8-1.86,0.73c-2.37-0.3-4.59,0.6-6.9,0.69
		c-0.5,0.02-1,0.18-1.5,0.14c-1.5-0.12-2.83,0.37-4.19,0.91c-0.91,0.36-1.92,0.53-2.9,0.65c-0.87,0.11-1.76,0.02-2.64,0.02
		c-53.33-0.01-106.66-0.03-160-0.02c-2.13,0-4.26,0.19-6.39,0.35c-1.51,0.11-1.91,0.39-2.15,1.88c-0.28,1.79-0.46,3.62-0.46,5.43
		c0.05,11.13,0.17,22.26,0.27,33.39c0.02,2.15-0.15,4.22-1.33,6.16c-0.45,0.75-0.51,1.8-0.56,2.72c-0.17,3.14-0.24,6.28-0.37,9.41
		c-0.05,1.36-0.49,2.53-1.4,3.61c-0.48,0.57-0.75,1.44-0.84,2.2c-0.25,2.07-0.43,4.08-1.96,5.75c-0.49,0.53-0.56,1.5-0.72,2.28
		c-0.18,0.86-0.18,1.75-0.37,2.61c-0.12,0.52-0.34,1.15-0.72,1.46c-0.98,0.81-1.56,1.78-1.79,3c-0.02,0.12-0.04,0.27-0.12,0.35
		c-1.49,1.59-2,3.83-3.64,5.34c-0.59,0.55-0.81,1.5-1.21,2.26c-0.4,0.76-0.68,1.62-1.23,2.25c-1.9,2.16-3.89,4.24-5.84,6.35
		c-0.09,0.09-0.22,0.18-0.24,0.29c-0.4,1.9-1.92,2.99-3.1,4.33c-0.29,0.33-0.55,0.86-0.9,0.93c-2.11,0.44-3.17,2.38-4.9,3.35
		c-0.22,0.12-0.43,0.27-0.61,0.45c-1.29,1.25-2.58,2.5-3.86,3.75c-0.13,0.13-0.26,0.35-0.41,0.38c-2.18,0.42-3.44,2.47-5.51,3.09
		c-0.12,0.04-0.24,0.09-0.34,0.16c-1.8,1.25-3.62,2.44-5.82,2.89c-0.32,0.07-0.55,0.5-0.87,0.69c-0.64,0.37-1.27,0.79-1.96,1
		c-1.68,0.51-3.38,0.82-4.74,2.13c-0.76,0.73-1.82,1.01-2.99,0.7c-1.45-0.38-2.78,0.19-3.8,1.17c-1.1,1.06-2.3,1.36-3.76,1.31
		c-2.57-0.09-5.16-0.2-7.67,0.6c-0.35,0.11-0.75,0.16-1.12,0.14c-1.93-0.14-3.74,0.31-5.49,1.07c-0.4,0.17-0.84,0.35-1.26,0.35
		c-3.18-0.02-6.39,0.43-9.49-0.86c-1.31-0.54-2.79-0.74-4.22-0.87c-2.69-0.24-5.39-0.36-8.09-0.44c-1.13-0.04-2.11-0.34-2.92-1.1
		c-0.83-0.77-1.8-1.06-2.9-1.2c-2.24-0.29-4.44-0.58-6.41-1.94c-0.93-0.64-2.25-0.72-3.37-1.11c-0.58-0.2-1.13-0.5-1.65-0.83
		c-1.22-0.75-2.38-1.6-3.62-2.3c-2.27-1.28-4.5-2.67-6.89-3.67c-3.44-1.44-5.3-4.64-8.09-6.79c-1.09-0.84-2.2-1.66-3.18-2.62
		c-2.01-1.98-4.14-3.88-5.82-6.12c-1.65-2.2-3.64-4.07-5.34-6.2c-0.27-0.34-0.41-0.77-0.64-1.15c-0.55-0.9-1.12-1.79-1.65-2.7
		c-0.34-0.59-0.78-1.18-0.92-1.82c-0.27-1.33-0.73-2.52-1.7-3.48c-0.22-0.22-0.52-0.46-0.57-0.74c-0.4-2.15-1.64-3.85-2.7-5.68
		c-0.53-0.92-0.44-2.19-0.74-3.28c-0.21-0.77-0.63-1.48-0.91-2.24c-0.46-1.28-1.05-2.55-1.29-3.88c-0.26-1.44-0.47-2.84-1.4-4.03
		c-0.81-1.04-0.99-2.29-1.03-3.56c-0.09-3.08-0.17-6.16-0.27-9.23c-0.03-0.75-0.06-1.51-0.22-2.24c-0.29-1.29-0.32-2.53-0.21-3.88
		c0.37-4.69,0.54-9.4,0.68-14.11c0.05-1.8,0.22-3.47,1.3-5c0.8-1.14,1.09-2.48,1.15-3.92c0.08-1.8,0.24-3.63,1.84-4.95
		c0.76-0.63,0.83-1.67,0.73-2.64c-0.18-1.77-0.09-3.42,1.7-4.43c0.1-0.06,0.22-0.18,0.24-0.29c0.42-2.22,2.21-3.71,3.03-5.72
		c0.39-0.96,1.08-1.8,1.61-2.72c0.33-0.58,0.76-1.16,0.89-1.79c0.2-0.92,0.68-1.56,1.33-2.2c0.7-0.69,1.27-1.52,1.87-2.31
		c1-1.34,1.95-2.73,2.98-4.05c1.34-1.71,2.72-3.39,4.11-5.06c0.27-0.33,0.65-0.58,0.99-0.84c0.35-0.26,0.75-0.47,1.08-0.75
		c1.75-1.49,3.49-2.99,5.22-4.51c0.37-0.33,0.63-0.78,0.99-1.13c0.35-0.34,0.7-0.83,1.12-0.91c1.14-0.23,1.87-0.94,2.62-1.73
		c0.42-0.44,0.99-0.73,1.5-1.08c0.88-0.58,1.76-1.15,2.64-1.73c0.1-0.07,0.18-0.21,0.29-0.24c2.57-0.51,4.53-2.34,6.92-3.22
		c0.76-0.28,1.64-0.47,2.22-0.97c1.25-1.07,2.69-1.54,4.23-1.92c0.84-0.21,1.65-0.59,2.4-1.02c1.23-0.71,2.49-1.15,3.93-1.08
		c2.12,0.1,4.03-0.32,5.8-1.72c0.84-0.66,2.23-0.88,3.37-0.87c4.41,0.04,8.79-0.2,13.16-0.71c1.56-0.18,3.14-0.14,4.71-0.14
		c10.31-0.01,20.63,0.01,30.94,0c1.13,0,2.26-0.1,3.38-0.22c1.9-0.21,2.94-1.2,3.14-3.09c0.12-1.12,0.11-2.26,0.11-3.39
		c0-21.82,0-43.65,0.01-65.47c0-2.07,0.16-4.14,0.21-6.21c0.1-3.94-1.28-5.26-5.17-5.07c-2.38,0.12-4.77,0.21-7.16,0.21
		c-50.31,0.01-100.63,0.03-150.94-0.02c-4.51,0-9.02-0.44-13.53-0.68c-0.44-0.02-0.88-0.06-1.32-0.03c-2.04,0.13-3.9-0.24-5.8-1.17
		c-1.46-0.72-3.28-0.7-4.91-1.09c-0.83-0.2-1.75-0.41-2.37-0.93c-1.02-0.85-2.12-1.3-3.4-1.44c-0.75-0.08-1.51-0.13-2.24-0.29
		c-0.85-0.18-1.8-0.3-2.48-0.76c-1.09-0.75-2.44-1.14-3.4-1.89c-1.76-1.39-3.59-2.39-5.75-2.9c-0.32-0.08-0.52-0.55-0.83-0.74
		c-0.74-0.44-1.47-1.01-2.28-1.17c-1.13-0.21-1.88-0.74-2.66-1.55c-1.47-1.52-3.16-2.82-4.74-4.24c-1.39-1.26-2.63-2.73-4.16-3.78
		c-2.86-1.95-4.61-4.92-7.09-7.22c-0.49-0.46-0.84-1.09-1.19-1.68c-0.52-0.86-1.09-1.56-1.99-2.16c-1.22-0.82-2.68-1.9-3.07-3.17
		c-0.61-2-1.72-3.56-2.82-5.21c-0.13-0.19-0.09-0.5-0.19-0.72c-0.42-0.96-0.74-1.99-1.33-2.84c-0.65-0.94-1.25-1.8-1.4-3.01
		c-0.09-0.74-0.64-1.47-1.14-2.09c-0.66-0.81-1.05-1.63-1.16-2.7c-0.16-1.62-0.66-3.11-1.49-4.59c-0.8-1.42-1.15-3.19-1.33-4.85
		c-0.17-1.55-0.69-2.91-1.24-4.31c-0.35-0.91-0.64-1.9-0.71-2.87c-0.3-4.07-0.53-8.14-0.72-12.21c-0.05-1.06,0.2-2.12,0.22-3.18
		c0.04-2.77,0.01-5.53,0.06-8.3c0.01-0.87,0.07-1.77,0.31-2.6c0.33-1.14,0.89-2.21,0.55-3.47c-0.07-0.27,0.04-0.65,0.19-0.9
		c0.93-1.54,1.21-3.25,1.54-4.98c0.22-1.13,0.8-2.23,1.36-3.26c0.91-1.66,1.08-3.47,1.2-5.27c0.08-1.26,0.56-2.27,1.31-3.25
		c0.47-0.62,0.88-1.39,1.03-2.14c0.16-0.86,0.45-1.56,1.15-2.06c0.92-0.67,1.27-1.64,1.64-2.67c0.28-0.79,0.85-1.48,1.31-2.21
		c0.1-0.15,0.35-0.24,0.4-0.39c0.69-2.19,2.06-3.97,3.53-5.65c1.38-1.58,2.02-3.67,3.79-5c1.13-0.85,1.91-2.14,2.93-3.15
		c1.55-1.53,3.19-2.98,4.77-4.48c0.81-0.77,1.55-1.62,2.39-2.36c1.49-1.31,2.91-2.77,4.58-3.79c2.01-1.22,3.39-3.44,5.96-3.77
		c0.28-0.04,0.61-0.25,0.78-0.48c0.85-1.13,1.97-1.67,3.35-1.89c0.66-0.11,1.42-0.39,1.86-0.85c1.21-1.3,2.83-1.52,4.37-2
		c0.69-0.21,1.39-0.57,1.95-1.03c1.02-0.84,2.13-1.33,3.45-1.29c1.82,0.06,3.45-0.41,4.95-1.48c0.59-0.42,1.37-0.65,2.1-0.76
		c2.84-0.42,5.65-1.12,8.58-0.92c0.57,0.04,1.26-0.24,1.74-0.59c1.24-0.91,2.6-1.08,4.09-1.08c42.39,0,84.78-0.03,127.17-0.05
		c13.14-0.01,26.29,0.02,39.43,0c1.12,0,2.25-0.17,3.37-0.28c0.93-0.09,1.51-0.64,1.68-1.53c0.27-1.41,0.66-2.83,0.66-4.25
		c0.04-10.82,0.02-21.63-0.02-32.45c-0.01-1.78,0.1-3.5,0.74-5.18c0.92-2.43,1.23-4.97,1.21-7.58c-0.02-2.7,0.17-5.4,0.31-8.1
		c0.07-1.28,0.4-2.49,1.37-3.42c0.93-0.89,1.26-1.99,1.22-3.25c-0.02-0.69,0.02-1.38,0-2.08c-0.03-0.88,0.24-1.64,0.96-2.14
		c1.29-0.89,1.6-2.21,1.66-3.63c0.06-1.3,0.25-2.48,1.44-3.3c0.33-0.22,0.53-0.7,0.67-1.1c0.47-1.3,0.76-2.68,2.06-3.49
		c0.14-0.09,0.29-0.3,0.3-0.46c0.15-1.89,1.34-3.16,2.49-4.51c0.37-0.43,0.38-1.16,0.59-1.74c0.19-0.52,0.33-1.09,0.66-1.51
		c0.65-0.82,1.42-1.55,2.14-2.32c1.32-1.41,2.65-2.81,3.97-4.22c0.13-0.14,0.31-0.25,0.38-0.41c0.71-1.61,1.65-2.98,3.03-4.16
		c0.75-0.64,1.28-1.48,2.32-1.74c0.3-0.07,0.61-0.22,0.83-0.43c1.48-1.33,2.96-2.65,4.4-4.02c1.04-0.99,2.01-2.04,3.02-3.05
		c0.09-0.09,0.2-0.2,0.31-0.21c2.05-0.2,3.36-1.85,5.11-2.64c0.95-0.43,1.8-1.1,2.7-1.65c0.32-0.2,0.63-0.46,0.98-0.54
		c1.61-0.37,3.08-0.93,4.31-2.15c0.48-0.48,1.35-0.66,2.07-0.81c1.43-0.3,2.72-0.84,4.02-1.52c1.2-0.62,2.61-0.82,3.92-1.24
		c1.13-0.36,2.35-0.57,3.34-1.17c2.05-1.24,4.33-1.31,6.54-1.42c3.95-0.2,7.88-0.37,11.68-1.63c1.64-0.54,3.33-0.44,5.03-0.09
		c1.16,0.24,2.35,0.31,3.53,0.44c0.25,0.03,0.52-0.02,0.75,0.07c2.93,1.16,6.04,1.03,9.09,1.34c0.37,0.04,0.75,0.11,1.13,0.09
		c2.08-0.13,3.95,0.35,5.72,1.51c0.75,0.49,1.74,0.66,2.65,0.85c1.65,0.34,3.33,0.52,4.76,1.61c1.42,1.08,3.22,0.96,4.87,1.27
		c1.03,0.19,1.96,0.42,2.55,1.38c0.06,0.11,0.15,0.25,0.25,0.28c2.35,0.56,4.02,2.41,6.22,3.26c0.73,0.28,1.37,0.79,2.01,1.26
		c0.45,0.33,0.76,0.95,1.25,1.1c1.59,0.49,2.82,1.49,4.08,2.49c0.24,0.19,0.55,0.31,0.78,0.52c3.37,3.07,6.76,6.11,10.07,9.24
		c0.9,0.85,1.55,1.97,2.35,2.93c0.59,0.7,1.17,1.47,1.91,1.99c1.92,1.36,2.19,3.85,3.92,5.38c1.09,0.96,2.12,2.29,2.54,3.65
		c0.64,2.09,1.76,3.83,2.96,5.57c0.16,0.24,0.18,0.6,0.21,0.91c0.1,1.13,0.58,2.08,1.46,2.76c0.94,0.73,1.22,1.63,1.23,2.79
		c0,1.72,0.36,3.37,1.62,4.69c0.74,0.78,0.99,1.72,0.95,2.77c-0.07,1.74,0.27,3.29,1.34,4.78c0.61,0.85,0.83,2.1,0.9,3.19
		c0.22,3.51,0.27,7.03,0.44,10.55c0.04,0.81,0.19,1.63,0.44,2.4c0.44,1.37,0.32,2.7,0.03,4.08c-0.25,1.22-0.37,2.48-0.42,3.73
		c-0.16,3.95-0.27,7.91-0.36,11.86c-0.02,1.07-0.34,2-1.11,2.71c-0.96,0.89-1.32,1.98-1.23,3.23c0.14,1.92-0.28,3.58-1.69,4.99
		c-0.85,0.86-0.94,2.04-0.91,3.18c0.05,1.58-0.28,2.9-1.57,4.03c-0.63,0.55-0.97,1.62-1.09,2.5c-0.13,0.96-0.44,1.68-1.17,2.24
		c-0.78,0.6-1.24,1.4-1.45,2.36c-0.05,0.25-0.05,0.53-0.18,0.73c-1.08,1.66-2.12,3.35-3.29,4.94c-1.4,1.91-2.92,3.73-4.4,5.59
		c-1.12,1.41-2.18,2.87-3.38,4.22c-1.19,1.34-2.51,2.56-3.79,3.83c-0.27,0.26-0.54,0.54-0.86,0.73c-2,1.18-3.48,2.97-5.24,4.41
		c-1.55,1.27-3.12,2.89-4.96,3.51c-2.37,0.8-4.24,2.36-6.45,3.38c-1.49,0.68-2.87,1.69-4.46,2.26c-0.17,0.06-0.38,0.16-0.47,0.3
		c-1.04,1.6-2.59,1.91-4.38,2.02c-0.91,0.06-1.82,0.73-2.65,1.24c-1.2,0.73-2.34,1.15-3.85,1.08c-2.41-0.1-4.88,0.03-6.93,1.75
		c-0.98,0.82-2.13,1.29-3.5,0.86c-0.52-0.16-1.13-0.13-1.69-0.09c-4.13,0.29-8.26,0.63-12.4,0.9c-1.75,0.11-3.52,0.14-5.27,0.12
		c-5.22-0.04-10.44-0.16-15.65-0.16c-5.15,0-10.31,0.11-15.46,0.18c-0.5,0.01-1.01,0.02-1.5,0.09c-1.63,0.24-2.2,0.73-2.46,2.37
		c-0.2,1.3-0.29,2.62-0.29,3.94c0,2.13,0.18,4.27,0.18,6.4c0.02,21.26,0,42.51,0.02,63.77c0,1.25,0.13,2.51,0.34,3.74
		c0.35,1.99,0.8,2.4,2.83,2.62c1.62,0.18,3.25,0.33,4.88,0.33c27.36,0.02,54.72,0.01,82.07,0.01
		C611.84,479.16,611.84,479.13,611.84,479.1z M389.72,397.41c-24.58,0-49.17,0-73.75,0c-3.71,0-7.42,0-11.13,0.13
		c-1.09,0.04-2.42,0.21-3.19,0.86c-1.47,1.24-3.07,1.59-4.85,1.7c-1.34,0.09-2.6,0.36-3.41,1.65c-0.24,0.39-0.76,0.81-1.19,0.84
		c-2.61,0.2-3.86,2.43-5.65,3.8c-1.67,1.28-3.01,2.98-4.5,4.49c-0.7,0.71-1.31,1.56-2.13,2.1c-1.1,0.73-1.64,1.65-1.81,2.91
		c-0.11,0.79-0.17,1.66-0.98,2.15c-1.13,0.69-1.53,1.83-1.72,3.01c-0.18,1.09-0.53,2.02-1.25,2.88c-0.83,0.99-1.1,2.19-1.19,3.49
		c-0.2,3.07-0.44,6.13-0.8,9.18c-0.15,1.21-0.18,2.35,0.04,3.54c0.25,1.35,0.51,2.74,0.46,4.1c-0.16,4.15,2.16,7.51,3.39,11.22
		c0.09,0.28,0.4,0.47,0.58,0.73c0.51,0.77,1.01,1.56,1.5,2.34c0.43,0.69,0.86,1.38,1.24,2.1c1.19,2.21,3.36,3.53,4.95,5.37
		c0.82,0.94,1.6,1.99,2.61,2.68c3.12,2.11,5.74,5.12,9.79,5.63c0.29,0.04,0.6,0.22,0.84,0.4c2.02,1.47,4.29,2.02,6.75,1.92
		c0.37-0.02,0.75,0.08,1.12,0.12c3.56,0.32,7.11,0.9,10.67,0.9c41.06,0.06,82.12,0.04,123.17,0.04c11.57,0,23.14,0.01,34.71,0.01
		c2.6,0,3.73-0.97,3.85-3.54c0.1-2.07,0.01-4.14,0.01-6.21c0-21.94,0-43.89,0-65.83c0-4.23-0.49-4.71-4.79-4.71
		C445.31,397.41,417.51,397.41,389.72,397.41z M610.39,602.66c23.26,0,46.53,0.01,69.79,0c5.03,0,10.06-0.06,15.09-0.08
		c1.09,0,2.23,0,3.02-0.81c1.44-1.5,3.26-1.77,5.16-1.83c1.21-0.04,2.16-0.44,2.94-1.4c0.41-0.5,1.02-1.05,1.61-1.15
		c2.29-0.37,3.52-2.31,5.23-3.48c1.61-1.1,2.83-2.79,4.2-4.25c0.93-1,1.75-2.11,2.75-3.04c0.82-0.76,1.34-1.59,1.64-2.66
		c0.21-0.75,0.59-1.58,1.16-2.06c1.05-0.89,1.51-2.03,1.65-3.27c0.1-0.94,0.44-1.65,1.02-2.35c0.82-0.99,1.2-2.14,1.3-3.45
		c0.27-3.49,0.65-6.97,0.98-10.46c0.04-0.43,0.1-0.89,0.01-1.31c-0.71-3.14-0.81-6.34-1.07-9.53c-0.07-0.86-0.56-1.78-1.1-2.49
		c-0.57-0.77-0.95-1.56-1.33-2.43c-1.04-2.38-2.24-4.68-3.39-7.01c-0.05-0.11-0.15-0.2-0.25-0.28c-3-2.63-5.27-6.02-8.7-8.2
		c-0.26-0.16-0.51-0.41-0.63-0.69c-0.49-1.06-1.41-1.54-2.43-1.95c-0.46-0.19-0.96-0.42-1.26-0.78c-0.91-1.11-2.12-1.5-3.46-1.72
		c-1.19-0.2-2.23-0.61-3.15-1.53c-0.55-0.55-1.54-0.79-2.36-0.9c-1.49-0.19-3.01-0.14-4.51-0.27c-4.19-0.35-8.33-1.12-12.57-0.95
		c-3.83,0.15-7.67,0.08-11.51,0.08c-47.41-0.03-94.82-0.06-142.23-0.1c-0.75,0-1.51-0.05-2.25-0.13c-1.94-0.22-3.3,0.78-3.53,2.74
		c-0.14,1.18-0.15,2.38-0.16,3.58c-0.01,8.17,0,16.35,0,24.52c0,14.27,0.01,28.55,0.02,42.82c0,1.45,0,2.9,0.1,4.34
		c0.1,1.52,1.03,2.38,2.55,2.47c0.56,0.04,1.13,0.01,1.7,0.01C554.43,602.66,582.41,602.66,610.39,602.66z M522.09,327.55
		C522.09,327.55,522.09,327.55,522.09,327.55c0.01,6.47-0.01,12.95,0.02,19.42c0.01,1.31,0.16,2.63,0.36,3.93
		c0.2,1.3,0.96,1.96,2.25,2.14c0.43,0.06,0.88,0.04,1.32,0.04c11.88,0,23.76,0.02,35.64-0.03c1.36-0.01,2.74-0.28,4.07-0.62
		c3.16-0.82,6.31-1.68,9.62-1.66c1.04,0.01,2-0.27,2.7-1.11c0.68-0.83,1.56-1.17,2.58-1.41c0.71-0.17,1.54-0.46,1.98-0.98
		c1.52-1.82,3.87-2.48,5.48-4.15c0.99-1.02,2.18-1.85,3.24-2.82c1.15-1.06,2.29-2.14,3.33-3.3c0.52-0.58,1.04-1.32,1.19-2.06
		c0.2-1.01,0.64-1.74,1.41-2.33c0.85-0.66,1.28-1.59,1.33-2.6c0.06-1.15,0.55-2.05,1.24-2.88c0.66-0.8,0.94-1.7,1.14-2.72
		c0.6-3.19,1.33-6.37,2.06-9.54c0.35-1.49,0.33-2.92,0.14-4.45c-0.34-2.74-0.78-5.42-1.84-7.99c-0.25-0.6-0.1-1.37-0.15-2.06
		c-0.14-1.72-0.52-3.33-1.85-4.6c-0.43-0.41-0.72-1.02-0.93-1.59c-0.77-2.03-2.55-3.55-2.91-5.79c-0.03-0.16-0.2-0.35-0.35-0.43
		c-1.54-0.84-2.31-2.43-3.53-3.58c-1.26-1.2-2.49-2.44-3.77-3.62c-0.59-0.54-1.23-1.05-1.94-1.4c-1.82-0.92-3.27-2.47-5.3-3.02
		c-0.17-0.05-0.31-0.22-0.43-0.35c-1-1.07-2.23-1.52-3.68-1.63c-2.08-0.17-4.06-0.64-5.88-1.8c-0.79-0.5-1.9-0.69-2.86-0.71
		c-3.64-0.08-7.29-0.09-10.93,0.02c-1.09,0.03-2.29,0.32-3.22,0.86c-1.52,0.88-3.04,1.36-4.79,1.44c-1.22,0.06-2.58,0.23-3.35,1.39
		c-0.56,0.83-1.3,1.01-2.2,1.21c-0.87,0.19-1.98,0.53-2.43,1.19c-1.14,1.65-3.06,2.36-4.26,3.88c-0.18,0.22-0.52,0.39-0.81,0.44
		c-1.41,0.24-2.3,1.29-2.74,2.38c-0.68,1.71-2.17,2.74-3.03,4.27c-0.2,0.36-0.57,0.72-0.94,0.88c-1.33,0.59-1.69,1.74-1.95,3.01
		c-0.12,0.59-0.25,1.35-0.66,1.67c-1.81,1.42-2.15,3.31-1.96,5.4c0.12,1.27-0.22,2.37-1.08,3.29c-0.86,0.93-1.21,2.02-1.21,3.27
		c0,1.07-0.09,2.13-0.09,3.2C522.08,315.61,522.09,321.58,522.09,327.55z M477.89,670.04c-0.29-5.9,0.45-13.07-0.36-20.22
		c-0.2-1.77-0.51-2.32-2.24-2.73c-0.6-0.14-1.24-0.16-1.87-0.16c-11.51-0.02-23.02-0.04-34.52-0.03c-1.19,0-2.41,0.05-3.55,0.35
		c-3.52,0.92-7.07,1.69-10.66,2.3c-1.08,0.18-2.09,0.79-3.12,1.22c-0.79,0.33-1.54,0.79-2.36,1.04c-0.92,0.29-1.79,0.58-2.34,1.44
		c-0.46,0.71-1.06,1.21-1.92,1.41c-0.35,0.08-0.71,0.27-0.99,0.5c-2.1,1.67-3.97,3.63-6.31,4.99c-0.4,0.23-0.62,0.77-0.9,1.18
		c-0.55,0.83-1.1,1.66-1.63,2.5c-0.37,0.58-0.69,1.19-1.06,1.77c-0.32,0.52-0.58,1.14-1.03,1.5c-1.11,0.9-1.58,2.02-1.74,3.41
		c-0.07,0.62-0.43,1.35-0.9,1.74c-1.29,1.07-1.76,2.4-1.68,4c0.11,2.36-0.55,4.6-1.2,6.81c-1.05,3.59-1.38,7.1-0.13,10.72
		c0.68,1.95,1.16,3.97,1.63,5.98c0.44,1.87,0.52,3.86,2.09,5.29c0.21,0.19,0.25,0.57,0.41,0.84c1.27,2.21,2.51,4.44,3.85,6.61
		c0.42,0.68,1.11,1.18,1.67,1.77c0.56,0.59,1.09,1.21,1.65,1.79c0.77,0.81,1.52,1.65,2.36,2.38c1.18,1.03,2.56,1.85,3.62,2.98
		c0.97,1.02,2.03,1.59,3.36,1.89c0.69,0.15,1.44,0.5,1.92,0.99c0.86,0.86,1.84,1.18,2.99,1.39c1.33,0.25,2.72,0.59,3.89,1.25
		c1.42,0.8,2.87,1.29,4.45,1.31c4.4,0.06,8.8,0.01,13.21,0.03c1.07,0,2.01-0.29,2.68-1.12c0.6-0.74,1.35-1.08,2.27-1.17
		c0.94-0.09,1.89-0.12,2.79-0.37c0.81-0.22,1.72-0.53,2.27-1.1c0.89-0.92,1.81-1.45,3.09-1.57c0.5-0.05,1.14-0.38,1.4-0.78
		c1.13-1.74,3.19-2.37,4.48-3.91c0.22-0.26,0.65-0.37,1-0.5c1.41-0.5,2.16-1.62,2.83-2.85c0.35-0.64,0.75-1.27,1.21-1.84
		c1.21-1.51,2.46-2.99,3.67-4.5c0.19-0.23,0.33-0.58,0.33-0.87c0-1.16,0.62-2.06,1.3-2.86c0.95-1.11,1.37-2.33,1.47-3.77
		c0.11-1.63,0.36-3.23,1.56-4.54c0.39-0.42,0.62-1.12,0.66-1.71c0.18-2.82,0.35-5.64,0.38-8.46
		C477.93,681.36,477.89,676.33,477.89,670.04z"/>
	<path id="SVGID_x5F_00000096050537128074297410000016972936868808530080_x5F_" class="st16" d="M131.5,500
		c0-203.51,164.98-368.5,368.5-368.5c203.51,0,368.5,164.98,368.5,368.5S703.51,868.5,500,868.5S131.5,703.51,131.5,500z"/>
	<text>	<textPath  xlink:href="#SVGID_x5F_00000096050537128074297410000016972936868808530080_x5F_" startOffset="100%">
<tspan  class="st14" style="font-family:'Poppins-Light'; font-size:63.7964px; letter-spacing:300;">SVERIGES VÅRDGIVARE</tspan>	</textPath>
</text>
	<path id="SVGID_x5F_00000091001224178769680260000003486935407769276551_x5F_" class="st16" d="M867.82,485.97
		c7.75,203.37-150.42,381.99-353.94,381.99S131.9,717.54,131.9,514.03s150.42-381.99,353.94-381.99S859.81,275.67,867.82,485.97z"/>
	<text>	<textPath  xlink:href="#SVGID_x5F_00000091001224178769680260000003486935407769276551_x5F_" startOffset="100%">
<tspan  class="st14" style="font-family:'Poppins-Light'; font-size:63.7964px; letter-spacing:300;">SVERIGES VÅRDGIVARE</tspan>	</textPath>
</text>
	<circle class="st17" cx="500" cy="500" r="436.04"/>
	<circle class="st18" cx="500" cy="500" r="455.83"/>
</g>
</svg>
